<svg width="400" height="226" viewBox="0 0 400 226" fill="none" xmlns="http://www.w3.org/2000/svg">
    <g clip-path="url(#clip0_1276_22009)">
        <path d="M1.12055 226C1.12055 226 -7.32404 156.336 22.232 135.224C47.9689 116.836 69.3773 105.668 113.007 104.261C156.637 102.853 180.557 102.846 206.598 74.005C232.639 45.163 267.846 1.58209 307.218 0.118091C345.219 -1.29641 368.438 10.6703 390.25 95.116C412.061 179.562 389.542 223.185 388.835 223.885C388.347 224.387 1.12055 226 1.12055 226Z" fill="#F0FAFA"/>
        <path d="M178.223 170.898C180.62 141.901 171.688 99.466 182.112 93.56C192.403 87.739 195.911 85.837 206.59 74.005C232.624 45.156 267.81 1.57499 307.218 0.118091C345.219 -1.29641 368.438 10.6703 390.249 95.116C401.155 137.339 400.511 159.646 399.444 172.977C398.864 180.311 398.284 189.859 397.93 190.206C397.442 190.708 176.235 194.98 178.223 170.898Z" fill="#F0FAFA"/>
        <path d="M90.0927 77.293L86.9666 224.585C86.9666 225.639 89.7956 225.293 90.5029 225.293H94.7464L94.0957 77.534L119.373 78.241L108.397 16.2363C108.122 14.6802 107.308 13.2706 106.098 12.2552C104.887 11.2398 103.357 10.6836 101.777 10.6844H84.3357C82.3157 10.6788 80.3582 11.3845 78.8064 12.6777C77.2546 13.9708 76.2075 15.769 75.8487 17.7569L65.1621 76.834L90.0927 77.293Z" fill="#C2EBEB"/>
        <path d="M46.5677 190.581C46.5677 190.581 46.4121 196.352 47.3881 196.995C47.8072 197.324 48.2883 197.565 48.8026 197.703L53.6614 223.921C53.6614 223.921 67.9054 226.509 75.0275 223.595L79.8863 197.696L81.5059 197.045L82.1565 190.574C82.1565 190.574 64.6945 184.753 46.5677 190.581Z" fill="#C2EBEB"/>
        <path d="M48.2012 197.533C48.2012 197.533 67.297 198.997 69.5531 198.353C71.8092 197.71 71.1727 192.526 71.1727 192.526L80.5579 191.557C80.5579 191.557 80.558 197.059 79.9073 197.71C79.1902 198.571 78.6408 199.56 78.2876 200.624C78.2876 200.949 74.4048 223.963 74.4048 223.963C74.4048 223.963 68.2518 224.932 67.2829 224.932C66.3139 224.932 69.8713 205.871 69.8713 204.535C69.8713 203.198 69.8713 200.652 68.9024 200.652C67.9335 200.652 49.2125 201.211 49.0994 199.124C48.9471 198.523 48.637 197.974 48.2012 197.533Z" fill="#A3E0E0"/>
        <path d="M55.7203 191.79C55.7203 191.79 50.3947 188.049 47.5657 187.709C44.7367 187.37 41.4551 187.002 38.6261 186.563C35.7971 186.125 32.1901 184.859 32.2608 183.204C32.3315 181.549 32.671 180.757 34.333 179.774C35.7343 178.862 37.322 178.274 38.9797 178.055C40.2244 177.942 52.9974 181.259 58.323 189.187L60.4447 191.79H55.7203Z" fill="#A3E0E0"/>
        <path d="M37.2812 182.539C37.2812 182.539 42.1754 182.476 44.8559 183.346C46.9515 184.129 48.983 185.075 50.9313 186.175L58.9444 191.755" fill="#A3E0E0"/>
        <path d="M37.2812 182.539C37.2812 182.539 42.1754 182.476 44.8559 183.346C46.9515 184.129 48.983 185.075 50.9313 186.175L58.9444 191.755" stroke="white" stroke-width="0.530438" stroke-miterlimit="10" stroke-linecap="round"/>
        <path d="M61.3272 191.571C61.3272 191.571 55.1316 183.155 52.7199 180.785C50.3082 178.416 47.4863 175.707 45.1594 173.232C42.8326 170.757 39.8974 167.206 41.1351 165.749C42.3728 164.292 43.2569 163.302 45.513 163.627C47.277 163.816 48.9662 164.441 50.4284 165.445C51.6732 166.251 62.9255 176.98 64.5734 189.308L66.1931 191.804L61.3272 191.571Z" fill="#A3E0E0"/>
        <path d="M46.7734 168.578C46.7734 168.578 51.5969 171.464 53.4923 174.236C55.2817 176.825 58.1177 181.457 58.1177 181.457L61.3357 190.291" stroke="white" stroke-width="0.530438" stroke-miterlimit="10" stroke-linecap="round"/>
        <path d="M64.4266 191.988C64.4266 191.988 57.1914 176.28 55.8405 173.175C54.4897 170.07 48.9661 165.396 47.7426 162.227C46.519 159.059 45.741 156.753 47.0353 155.013C48.3296 153.273 51.6536 151.83 53.7753 152.891C55.7769 153.867 58.3796 156.838 59.4971 158.344C60.3882 159.532 66.3078 180.87 65.8198 185.793L66.9514 192.094L64.4266 191.988Z" fill="#F0FAFA"/>
        <path d="M51.6816 158.677C51.6816 158.677 55.8331 164.024 57.092 167.164C58.5065 170.7 59.921 177.44 59.7372 176.358L64.0584 190.949" stroke="white" stroke-width="0.530438" stroke-miterlimit="10" stroke-linecap="round"/>
        <path d="M60.4594 191.868C60.4594 191.868 54.0942 184.604 50.9893 183.197C47.8845 181.79 44.3553 180.198 41.3212 178.685C38.2871 177.171 34.6448 174.604 35.2601 173.062C35.8754 171.52 36.5048 170.898 38.6973 170.608C40.6128 170.284 42.5732 170.337 44.4685 170.764C45.883 171.131 59.1793 179.166 62.5954 188.706L64.1725 191.995L60.4594 191.868Z" fill="#F0FAFA"/>
        <path d="M41.1289 174.378C41.1289 174.378 46.6384 176.188 49.3755 178.041C51.4597 179.567 53.4353 181.235 55.2881 183.034L61.3987 191.932" stroke="white" stroke-width="0.530438" stroke-miterlimit="10" stroke-linecap="round"/>
        <path d="M77.1066 192.031C77.1066 192.031 82.8706 188.494 85.933 188.134C88.9954 187.773 92.5387 187.469 95.6082 187.037C98.6777 186.606 102.575 185.411 102.497 183.826C102.42 182.242 102.059 181.485 100.255 180.545C98.7068 179.664 96.9962 179.106 95.2263 178.904C93.8755 178.798 80.0557 181.959 74.2916 189.513L71.9648 192.002L77.1066 192.031Z" fill="#A3E0E0"/>
        <path d="M97.0443 183.204C97.0443 183.204 91.7541 183.141 88.8473 183.975C86.5933 184.712 84.3951 185.61 82.2698 186.663L74.582 191.826" fill="#A3E0E0"/>
        <path d="M97.0443 183.204C97.0443 183.204 91.7541 183.141 88.8473 183.975C86.5933 184.712 84.3951 185.61 82.2698 186.663L74.582 191.826" stroke="white" stroke-width="0.530438" stroke-miterlimit="10" stroke-linecap="round"/>
        <path d="M71.0314 191.825C71.0314 191.825 77.7291 183.791 80.346 181.528C82.9628 179.265 86.0039 176.676 88.5288 174.314C91.0537 171.952 94.2222 168.564 92.8784 167.164C91.5347 165.763 90.587 164.823 88.1399 165.12C86.2591 165.289 84.441 165.881 82.8213 166.852C81.4705 167.616 69.2987 177.871 67.5164 189.64L65.7695 192.023L71.0314 191.825Z" fill="#A3E0E0"/>
        <path d="M86.7888 169.88C86.7888 169.88 81.5693 172.631 79.5183 175.255C77.5804 177.73 74.5181 182.15 74.5181 182.15L71.0312 190.581" stroke="white" stroke-width="0.530438" stroke-miterlimit="10" stroke-linecap="round"/>
        <path d="M67.6936 192.229C67.6936 192.229 75.5229 177.228 76.9798 174.258C78.4368 171.287 84.4201 166.846 85.7427 163.804C87.0652 160.763 87.9068 158.571 86.5206 156.916C85.1344 155.261 81.5204 153.875 79.2289 154.865C77.0647 155.798 74.2782 158.634 73.0405 160.07C72.0786 161.209 65.6709 181.578 66.1942 186.288L64.9707 192.307L67.6936 192.229Z" fill="#F0FAFA"/>
        <path d="M66.9368 192.038C66.9368 192.038 67.5663 177.398 69.0586 172.645C70.0699 169.498 71.06 164.158 72.3826 161.152C73.7052 158.146 71.6753 154.193 70.3174 152.531C68.9595 150.869 65.3667 151.187 63.0469 152.17C60.8827 153.104 59.6379 156.124 59.3621 157.736C59.1146 159.207 64.3128 176.867 63.7612 183.324L64.2067 192.123L66.9368 192.038Z" fill="#A3E0E0"/>
        <path d="M81.4772 160.438C81.4772 160.438 76.9861 165.544 75.6211 168.536C74.0793 171.924 72.5446 178.352 72.7921 177.292L67.707 191.578" stroke="white" stroke-width="0.530438" stroke-miterlimit="10" stroke-linecap="round"/>
        <path d="M71.9801 192.115C71.9801 192.115 78.9041 185.177 82.2282 183.834C85.5523 182.49 89.4067 181.005 92.6884 179.526C95.97 178.048 99.9094 175.629 99.2446 174.158C98.5798 172.687 97.8937 172.093 95.5245 171.817C93.4497 171.508 91.3372 171.558 89.2795 171.966C87.7235 172.319 73.3663 179.986 69.6674 189.103L67.9629 192.243L71.9801 192.115Z" fill="#F0FAFA"/>
        <path d="M92.9003 175.403C92.9003 175.403 86.9382 177.129 83.9818 178.897C81.7431 180.339 79.6046 181.932 77.5812 183.664L70.834 191.146" stroke="white" stroke-width="0.530438" stroke-miterlimit="10" stroke-linecap="round"/>
        <path d="M65.5078 155.296C65.5078 155.296 66.7101 167.836 66.0099 171.209C65.7199 172.624 65.8614 181.443 65.8614 181.443L65.5714 191.21" stroke="white" stroke-width="0.530438" stroke-miterlimit="10" stroke-linecap="round"/>
        <path d="M65.7767 73.531L118.261 74.5L119.336 78.227L65.1543 76.819L65.7767 73.531Z" fill="#A3E0E0"/>
        <path d="M323.832 82.647L323.4 185.771L388.892 185.948C388.892 185.948 389.366 131.638 386.77 79.627L323.966 78.687L323.832 82.647Z" fill="#A3E0E0"/>
        <path d="M262.209 95.979L260.469 186.012H316.448L316.052 95.979H262.209Z" fill="#A3E0E0"/>
        <path d="M180.918 148.811L261.375 149.228L260.47 186.012L181.222 185.984L180.918 148.811Z" fill="#A3E0E0"/>
        <path d="M174.291 96.913L174.489 186.203C174.489 186.203 174.977 191.819 180.345 192.059C185.713 192.299 397.294 192.391 397.294 192.391C397.294 192.391 399.183 186.472 398.454 186.224C397.726 185.977 181.222 185.984 181.222 185.984C181.222 185.984 181.286 182.822 181.286 180.8C181.286 178.551 181.165 94.098 181.165 94.098C178.974 95.263 176.671 96.206 174.291 96.913Z" fill="white"/>
        <path d="M178.957 105.781L393.035 107.061L394.166 111.701L178.957 112.734V105.781Z" fill="white"/>
        <path d="M239.363 36.251V186.167L245.014 186.606V32.34L239.363 36.251Z" fill="white"/>
        <path d="M341.606 6.0874L341.479 186.168L346.698 185.736L347.511 9.6024L341.606 6.0874Z" fill="white"/>
        <path d="M245.016 32.34L367.193 33.083L363.678 26.753L251.968 26.697L245.016 32.34Z" fill="white"/>
        <path d="M265.611 61.868C272.47 61.868 278.03 56.308 278.03 49.449C278.03 42.59 272.47 37.03 265.611 37.03C258.752 37.03 253.191 42.59 253.191 49.449C253.191 56.308 258.752 61.868 265.611 61.868Z" fill="white"/>
        <path d="M277.699 61.585C282.195 61.585 285.84 57.941 285.84 53.445C285.84 48.949 282.195 45.304 277.699 45.304C273.203 45.304 269.559 48.949 269.559 53.445C269.559 57.941 273.203 61.585 277.699 61.585Z" fill="white"/>
        <path d="M359.825 73.5591C366.813 73.5591 372.477 67.8941 372.477 60.9061C372.477 53.9181 366.813 48.2531 359.825 48.2531C352.837 48.2531 347.172 53.9181 347.172 60.9061C347.172 67.8941 352.837 73.5591 359.825 73.5591Z" fill="white"/>
        <path d="M346.789 70.808C351.367 70.808 355.078 67.097 355.078 62.519C355.078 57.941 351.367 54.23 346.789 54.23C342.211 54.23 338.5 57.941 338.5 62.519C338.5 67.097 342.211 70.808 346.789 70.808Z" fill="white"/>
    </g>
    <defs>
        <clipPath id="clip0_1276_22009">
            <rect width="400" height="226" fill="white"/>
        </clipPath>
    </defs>
</svg>
