<svg width="48" height="48" viewBox="0 0 48 48" fill="currentColor" xmlns="http://www.w3.org/2000/svg">
<path d="M40.6069 7.39314C38.2243 5.00722 35.1073 3.49365 31.7589 3.09668C28.4105 2.69971 25.026 3.44249 22.1515 5.20516C19.2771 6.96783 17.0804 9.64757 15.9159 12.812C14.7514 15.9764 14.687 19.4408 15.7331 22.6463L5.37939 33C5.0996 33.2776 4.87778 33.608 4.72681 33.972C4.57585 34.3361 4.49876 34.7265 4.50002 35.1206V40.5C4.50002 41.2957 4.81609 42.0587 5.37869 42.6213C5.9413 43.1839 6.70437 43.5 7.50002 43.5H13.5C13.8978 43.5 14.2794 43.342 14.5607 43.0607C14.842 42.7794 15 42.3978 15 42V39H18C18.3978 39 18.7794 38.842 19.0607 38.5607C19.342 38.2794 19.5 37.8978 19.5 37.5V34.5H22.5C22.6971 34.5002 22.8922 34.4615 23.0743 34.3862C23.2564 34.3109 23.4219 34.2005 23.5613 34.0613L25.3538 32.2669C26.8541 32.7549 28.4223 33.0024 30 33H30.0188C32.984 32.9964 35.8816 32.1141 38.3456 30.4644C40.8095 28.8148 42.7293 26.4719 43.8623 23.7317C44.9954 20.9915 45.2908 17.977 44.7114 15.0689C44.132 12.1609 42.7037 9.4898 40.6069 7.39314ZM42 18.3938C41.7956 24.7856 36.4219 29.9925 30.0206 30H30C28.4816 30.0026 26.9766 29.7156 25.5656 29.1544C25.2896 29.0346 24.984 29.0006 24.6884 29.0568C24.3928 29.1129 24.121 29.2567 23.9081 29.4694L21.8794 31.5H18C17.6022 31.5 17.2207 31.6581 16.9394 31.9394C16.6581 32.2207 16.5 32.6022 16.5 33V36H13.5C13.1022 36 12.7207 36.1581 12.4394 36.4394C12.1581 36.7207 12 37.1022 12 37.5V40.5H7.50002V35.1206L18.5306 24.0919C18.7433 23.8791 18.8871 23.6072 18.9433 23.3116C18.9994 23.016 18.9654 22.7104 18.8456 22.4344C18.2827 21.0187 17.9956 19.5085 18 17.985C18 11.5838 23.2144 6.21001 29.6063 6.00564C31.2481 5.95085 32.8838 6.23376 34.4119 6.83686C35.94 7.43995 37.328 8.35039 38.4899 9.51176C39.6518 10.6731 40.5628 12.0607 41.1666 13.5885C41.7704 15.1163 42.0541 16.7519 42 18.3938ZM36 14.25C36 14.695 35.8681 15.13 35.6208 15.5C35.3736 15.8701 35.0222 16.1584 34.6111 16.3287C34.1999 16.499 33.7475 16.5436 33.3111 16.4568C32.8746 16.37 32.4737 16.1557 32.159 15.841C31.8444 15.5263 31.6301 15.1254 31.5432 14.689C31.4564 14.2525 31.501 13.8001 31.6713 13.389C31.8416 12.9778 32.13 12.6264 32.5 12.3792C32.87 12.132 33.305 12 33.75 12C34.3468 12 34.919 12.2371 35.341 12.659C35.763 13.081 36 13.6533 36 14.25Z" />
</svg>
