<svg width="48" height="48" viewBox="0 0 48 48" fill="currentColor" xmlns="http://www.w3.org/2000/svg">
<path d="M44.4001 35.2668L28.0032 6.79113C27.5934 6.09349 27.0085 5.51504 26.3063 5.11312C25.6041 4.7112 24.8091 4.49976 24.0001 4.49976C23.191 4.49976 22.396 4.7112 21.6938 5.11312C20.9916 5.51504 20.4067 6.09349 19.9969 6.79113L3.60006 35.2668C3.20581 35.9415 2.99805 36.709 2.99805 37.4905C2.99805 38.272 3.20581 39.0395 3.60006 39.7143C4.00455 40.4161 4.5885 40.9977 5.29199 41.3994C5.99547 41.801 6.79315 42.0083 7.60318 41.9999H40.3969C41.2063 42.0076 42.0032 41.8 42.706 41.3984C43.4088 40.9968 43.9921 40.4156 44.3963 39.7143C44.7911 39.0398 44.9995 38.2725 45.0002 37.491C45.0009 36.7095 44.7937 35.9419 44.4001 35.2668ZM41.7994 38.2124C41.6565 38.4562 41.4513 38.6577 41.2048 38.796C40.9584 38.9344 40.6795 39.0048 40.3969 38.9999H7.60318C7.32058 39.0048 7.04176 38.9344 6.7953 38.796C6.54885 38.6577 6.34363 38.4562 6.20068 38.2124C6.0712 37.9932 6.0029 37.7432 6.0029 37.4886C6.0029 37.234 6.0712 36.9841 6.20068 36.7649L22.5976 8.28925C22.7434 8.04658 22.9495 7.84577 23.196 7.70636C23.4424 7.56695 23.7207 7.49368 24.0038 7.49368C24.2869 7.49368 24.5652 7.56695 24.8117 7.70636C25.0581 7.84577 25.2642 8.04658 25.4101 8.28925L41.8069 36.7649C41.9353 36.9848 42.0023 37.2351 42.001 37.4897C41.9996 37.7443 41.93 37.9938 41.7994 38.2124ZM22.5001 26.9999V19.4999C22.5001 19.1021 22.6581 18.7205 22.9394 18.4392C23.2207 18.1579 23.6022 17.9999 24.0001 17.9999C24.3979 17.9999 24.7794 18.1579 25.0607 18.4392C25.342 18.7205 25.5001 19.1021 25.5001 19.4999V26.9999C25.5001 27.3977 25.342 27.7792 25.0607 28.0605C24.7794 28.3418 24.3979 28.4999 24.0001 28.4999C23.6022 28.4999 23.2207 28.3418 22.9394 28.0605C22.6581 27.7792 22.5001 27.3977 22.5001 26.9999ZM26.2501 33.7499C26.2501 34.1949 26.1181 34.6299 25.8709 34.9999C25.6236 35.3699 25.2722 35.6583 24.8611 35.8286C24.45 35.9989 23.9976 36.0435 23.5611 35.9566C23.1246 35.8698 22.7237 35.6555 22.4091 35.3409C22.0944 35.0262 21.8801 34.6253 21.7933 34.1888C21.7065 33.7524 21.751 33.3 21.9213 32.8888C22.0916 32.4777 22.38 32.1263 22.75 31.8791C23.12 31.6318 23.555 31.4999 24.0001 31.4999C24.5968 31.4999 25.1691 31.7369 25.591 32.1589C26.013 32.5808 26.2501 33.1531 26.2501 33.7499Z" />
</svg>
