<svg width="48" height="48" viewBox="0 0 48 48" fill="currentColor" xmlns="http://www.w3.org/2000/svg">
<path d="M28.5 15C29.6867 15 30.8467 14.6481 31.8334 13.9888C32.8201 13.3295 33.5891 12.3925 34.0433 11.2961C34.4974 10.1997 34.6162 8.99335 34.3847 7.82946C34.1532 6.66558 33.5817 5.59648 32.7426 4.75736C31.9035 3.91825 30.8344 3.3468 29.6705 3.11529C28.5066 2.88378 27.3002 3.0026 26.2039 3.45673C25.1075 3.91085 24.1704 4.67989 23.5112 5.66658C22.8519 6.65328 22.5 7.81332 22.5 9C22.5 10.5913 23.1321 12.1174 24.2573 13.2426C25.3826 14.3679 26.9087 15 28.5 15ZM28.5 6C29.0933 6 29.6733 6.17595 30.1667 6.50559C30.66 6.83524 31.0446 7.30377 31.2716 7.85195C31.4987 8.40013 31.5581 9.00333 31.4423 9.58527C31.3266 10.1672 31.0409 10.7018 30.6213 11.1213C30.2017 11.5409 29.6672 11.8266 29.0852 11.9424C28.5033 12.0581 27.9001 11.9987 27.3519 11.7716C26.8037 11.5446 26.3352 11.1601 26.0056 10.6667C25.6759 10.1734 25.5 9.59335 25.5 9C25.5 8.20435 25.816 7.44129 26.3787 6.87868C26.9413 6.31607 27.7043 6 28.5 6ZM40.5 27C40.5 27.3978 40.3419 27.7794 40.0606 28.0607C39.7793 28.342 39.3978 28.5 39 28.5C32.3794 28.5 29.0719 25.1606 26.415 22.4775C25.9012 21.9581 25.41 21.465 24.915 21.0075L22.3969 26.7975L29.3719 31.7794C29.5661 31.9182 29.7245 32.1013 29.8337 32.3136C29.943 32.5259 30 32.7612 30 33V43.5C30 43.8978 29.8419 44.2794 29.5606 44.5607C29.2793 44.842 28.8978 45 28.5 45C28.1022 45 27.7206 44.842 27.4393 44.5607C27.158 44.2794 27 43.8978 27 43.5V33.7725L21.1744 29.61L14.8762 44.0981C14.7597 44.3662 14.5673 44.5944 14.3228 44.7546C14.0783 44.9148 13.7923 45.0001 13.5 45C13.294 45.0005 13.0902 44.9577 12.9019 44.8744C12.5372 44.7159 12.2504 44.4191 12.1045 44.0492C11.9586 43.6793 11.9655 43.2667 12.1237 42.9019L22.2637 19.5825C20.5181 19.2731 18.3412 19.8075 15.7575 21.1913C13.6968 22.3279 11.7736 23.6975 10.0256 25.2731C9.73383 25.5345 9.3514 25.6713 8.96005 25.6544C8.56871 25.6375 8.1995 25.4682 7.93135 25.1827C7.6632 24.8971 7.51738 24.518 7.52507 24.1264C7.53275 23.7348 7.69333 23.3617 7.97248 23.0869C8.44123 22.6463 19.5394 12.3563 26.4825 18.3844C27.2006 19.0069 27.885 19.6969 28.545 20.3663C31.1606 23.0063 33.63 25.5 39 25.5C39.3978 25.5 39.7793 25.658 40.0606 25.9393C40.3419 26.2206 40.5 26.6022 40.5 27Z" />
</svg>
