<svg width="48" height="48" viewBox="0 0 48 48" fill="currentColor" xmlns="http://www.w3.org/2000/svg">
<path d="M39 6H34.5V4.5C34.5 4.10218 34.342 3.72064 34.0607 3.43934C33.7794 3.15804 33.3978 3 33 3C32.6022 3 32.2206 3.15804 31.9393 3.43934C31.658 3.72064 31.5 4.10218 31.5 4.5V6H16.5V4.5C16.5 4.10218 16.342 3.72064 16.0607 3.43934C15.7794 3.15804 15.3978 3 15 3C14.6022 3 14.2206 3.15804 13.9393 3.43934C13.658 3.72064 13.5 4.10218 13.5 4.5V6H9C8.20435 6 7.44129 6.31607 6.87868 6.87868C6.31607 7.44129 6 8.20435 6 9V39C6 39.7957 6.31607 40.5587 6.87868 41.1213C7.44129 41.6839 8.20435 42 9 42H39C39.7957 42 40.5587 41.6839 41.1213 41.1213C41.6839 40.5587 42 39.7957 42 39V9C42 8.20435 41.6839 7.44129 41.1213 6.87868C40.5587 6.31607 39.7957 6 39 6ZM13.5 9V10.5C13.5 10.8978 13.658 11.2794 13.9393 11.5607C14.2206 11.842 14.6022 12 15 12C15.3978 12 15.7794 11.842 16.0607 11.5607C16.342 11.2794 16.5 10.8978 16.5 10.5V9H31.5V10.5C31.5 10.8978 31.658 11.2794 31.9393 11.5607C32.2206 11.842 32.6022 12 33 12C33.3978 12 33.7794 11.842 34.0607 11.5607C34.342 11.2794 34.5 10.8978 34.5 10.5V9H39V15H9V9H13.5ZM39 39H9V18H39V39ZM26.25 24.75C26.25 25.195 26.118 25.63 25.8708 26C25.6236 26.37 25.2722 26.6584 24.861 26.8287C24.4499 26.999 23.9975 27.0436 23.561 26.9568C23.1246 26.87 22.7237 26.6557 22.409 26.341C22.0943 26.0263 21.88 25.6254 21.7932 25.189C21.7064 24.7525 21.751 24.3001 21.9213 23.889C22.0916 23.4778 22.38 23.1264 22.75 22.8792C23.12 22.632 23.555 22.5 24 22.5C24.5967 22.5 25.169 22.7371 25.591 23.159C26.0129 23.581 26.25 24.1533 26.25 24.75ZM34.5 24.75C34.5 25.195 34.368 25.63 34.1208 26C33.8736 26.37 33.5222 26.6584 33.111 26.8287C32.6999 26.999 32.2475 27.0436 31.811 26.9568C31.3746 26.87 30.9737 26.6557 30.659 26.341C30.3443 26.0263 30.13 25.6254 30.0432 25.189C29.9564 24.7525 30.001 24.3001 30.1713 23.889C30.3416 23.4778 30.63 23.1264 31 22.8792C31.37 22.632 31.805 22.5 32.25 22.5C32.8467 22.5 33.419 22.7371 33.841 23.159C34.2629 23.581 34.5 24.1533 34.5 24.75ZM18 32.25C18 32.695 17.868 33.13 17.6208 33.5C17.3736 33.87 17.0222 34.1584 16.611 34.3287C16.1999 34.499 15.7475 34.5436 15.311 34.4568C14.8746 34.37 14.4737 34.1557 14.159 33.841C13.8443 33.5263 13.63 33.1254 13.5432 32.689C13.4564 32.2525 13.501 31.8001 13.6713 31.389C13.8416 30.9778 14.13 30.6264 14.5 30.3792C14.87 30.132 15.305 30 15.75 30C16.3467 30 16.919 30.2371 17.341 30.659C17.7629 31.081 18 31.6533 18 32.25ZM26.25 32.25C26.25 32.695 26.118 33.13 25.8708 33.5C25.6236 33.87 25.2722 34.1584 24.861 34.3287C24.4499 34.499 23.9975 34.5436 23.561 34.4568C23.1246 34.37 22.7237 34.1557 22.409 33.841C22.0943 33.5263 21.88 33.1254 21.7932 32.689C21.7064 32.2525 21.751 31.8001 21.9213 31.389C22.0916 30.9778 22.38 30.6264 22.75 30.3792C23.12 30.132 23.555 30 24 30C24.5967 30 25.169 30.2371 25.591 30.659C26.0129 31.081 26.25 31.6533 26.25 32.25ZM34.5 32.25C34.5 32.695 34.368 33.13 34.1208 33.5C33.8736 33.87 33.5222 34.1584 33.111 34.3287C32.6999 34.499 32.2475 34.5436 31.811 34.4568C31.3746 34.37 30.9737 34.1557 30.659 33.841C30.3443 33.5263 30.13 33.1254 30.0432 32.689C29.9564 32.2525 30.001 31.8001 30.1713 31.389C30.3416 30.9778 30.63 30.6264 31 30.3792C31.37 30.132 31.805 30 32.25 30C32.8467 30 33.419 30.2371 33.841 30.659C34.2629 31.081 34.5 31.6533 34.5 32.25Z" />
</svg>
