<svg width="48" height="48" viewBox="0 0 48 48" fill="currentColor" xmlns="http://www.w3.org/2000/svg">
  <path d="M24 4C13.0 4 4 13.0 4 24C4 35.0 13.0 44 24 44C35.0 44 44 35.0 44 24C44 13.0 35.0 4 24 4ZM24 6C33.9411 6 42 14.0589 42 24C42 33.9411 33.9411 42 24 42C14.0589 42 6 33.9411 6 24C6 14.0589 14.0589 6 24 6ZM30 18C30.39 17.61 30.39 16.98 30 16.59C29.61 16.2 28.98 16.2 28.59 16.59L24 21.17L19.41 16.59C19.02 16.2 18.39 16.2 18 16.59C17.61 16.98 17.61 17.61 18 18L22.59 22.59L18 27.17C17.61 27.56 17.61 28.19 18 28.58C18.39 28.97 19.02 28.97 19.41 28.58L24 23.99L28.59 28.58C28.98 28.97 29.61 28.97 30 28.58C30.39 28.19 30.39 27.56 30 27.17L25.41 22.59L30 18Z"/>
</svg>
