<svg width="48" height="48" viewBox="0 0 48 48" fill="currentColor" xmlns="http://www.w3.org/2000/svg">
<path d="M40.5001 9H7.50005C6.7044 9 5.94134 9.31607 5.37873 9.87868C4.81612 10.4413 4.50005 11.2044 4.50005 12V42C4.49659 42.5721 4.65843 43.133 4.9661 43.6153C5.27378 44.0976 5.7142 44.4808 6.23443 44.7188C6.63086 44.9033 7.06276 44.9993 7.50005 45C8.20431 44.9983 8.88521 44.7472 9.42193 44.2913L9.4388 44.2781L15.5626 39H40.5001C41.2957 39 42.0588 38.6839 42.6214 38.1213C43.184 37.5587 43.5001 36.7956 43.5001 36V12C43.5001 11.2044 43.184 10.4413 42.6214 9.87868C42.0588 9.31607 41.2957 9 40.5001 9ZM40.5001 36H15.0001C14.6399 36.0002 14.2918 36.13 14.0194 36.3656L7.50005 42V12H40.5001V36Z" />
</svg>
