<svg width="48" height="48" viewBox="0 0 48 48" fill="currentColor" xmlns="http://www.w3.org/2000/svg">
<path d="M26.9999 19.5V12C26.9999 11.6022 27.1579 11.2206 27.4392 10.9393C27.7205 10.658 28.102 10.5 28.4999 10.5C28.8977 10.5 29.2792 10.658 29.5605 10.9393C29.8418 11.2206 29.9999 11.6022 29.9999 12V15.8794L37.9386 7.93874C38.2201 7.65728 38.6018 7.49916 38.9999 7.49916C39.3979 7.49916 39.7796 7.65728 40.0611 7.93874C40.3426 8.22021 40.5007 8.60195 40.5007 8.99999C40.5007 9.39804 40.3426 9.77978 40.0611 10.0612L32.1205 18H35.9999C36.3977 18 36.7792 18.158 37.0605 18.4393C37.3418 18.7206 37.4999 19.1022 37.4999 19.5C37.4999 19.8978 37.3418 20.2794 37.0605 20.5607C36.7792 20.842 36.3977 21 35.9999 21H28.4999C28.102 21 27.7205 20.842 27.4392 20.5607C27.1579 20.2794 26.9999 19.8978 26.9999 19.5ZM19.4999 27H11.9999C11.602 27 11.2205 27.158 10.9392 27.4393C10.6579 27.7206 10.4999 28.1022 10.4999 28.5C10.4999 28.8978 10.6579 29.2794 10.9392 29.5607C11.2205 29.842 11.602 30 11.9999 30H15.8792L7.93861 37.9387C7.65715 38.2202 7.49902 38.6019 7.49902 39C7.49902 39.398 7.65715 39.7798 7.93861 40.0612C8.22007 40.3427 8.60181 40.5008 8.99986 40.5008C9.3979 40.5008 9.77965 40.3427 10.0611 40.0612L17.9999 32.1206V36C17.9999 36.3978 18.1579 36.7794 18.4392 37.0607C18.7205 37.342 19.102 37.5 19.4999 37.5C19.8977 37.5 20.2792 37.342 20.5605 37.0607C20.8418 36.7794 20.9999 36.3978 20.9999 36V28.5C20.9999 28.1022 20.8418 27.7206 20.5605 27.4393C20.2792 27.158 19.8977 27 19.4999 27ZM32.1205 30H35.9999C36.3977 30 36.7792 29.842 37.0605 29.5607C37.3418 29.2794 37.4999 28.8978 37.4999 28.5C37.4999 28.1022 37.3418 27.7206 37.0605 27.4393C36.7792 27.158 36.3977 27 35.9999 27H28.4999C28.102 27 27.7205 27.158 27.4392 27.4393C27.1579 27.7206 26.9999 28.1022 26.9999 28.5V36C26.9999 36.3978 27.1579 36.7794 27.4392 37.0607C27.7205 37.342 28.102 37.5 28.4999 37.5C28.8977 37.5 29.2792 37.342 29.5605 37.0607C29.8418 36.7794 29.9999 36.3978 29.9999 36V32.1206L37.9386 40.0612C38.078 40.2006 38.2434 40.3112 38.4255 40.3866C38.6076 40.462 38.8028 40.5008 38.9999 40.5008C39.197 40.5008 39.3921 40.462 39.5742 40.3866C39.7563 40.3112 39.9217 40.2006 40.0611 40.0612C40.2005 39.9219 40.311 39.7564 40.3864 39.5743C40.4619 39.3923 40.5007 39.1971 40.5007 39C40.5007 38.8029 40.4619 38.6077 40.3864 38.4257C40.311 38.2436 40.2005 38.0781 40.0611 37.9387L32.1205 30ZM19.4999 10.5C19.102 10.5 18.7205 10.658 18.4392 10.9393C18.1579 11.2206 17.9999 11.6022 17.9999 12V15.8794L10.0611 7.93874C9.77965 7.65728 9.3979 7.49916 8.99986 7.49916C8.60181 7.49916 8.22007 7.65728 7.93861 7.93874C7.65715 8.22021 7.49902 8.60195 7.49902 8.99999C7.49902 9.39804 7.65715 9.77978 7.93861 10.0612L15.8792 18H11.9999C11.602 18 11.2205 18.158 10.9392 18.4393C10.6579 18.7206 10.4999 19.1022 10.4999 19.5C10.4999 19.8978 10.6579 20.2794 10.9392 20.5607C11.2205 20.842 11.602 21 11.9999 21H19.4999C19.8977 21 20.2792 20.842 20.5605 20.5607C20.8418 20.2794 20.9999 19.8978 20.9999 19.5V12C20.9999 11.6022 20.8418 11.2206 20.5605 10.9393C20.2792 10.658 19.8977 10.5 19.4999 10.5Z" />
</svg>
