<svg width="48" height="48" viewBox="0 0 48 48" fill="currentColor" xmlns="http://www.w3.org/2000/svg">
<g clip-path="url(#clip0_587_3019)">
<path d="M22.5 12.0694V3C22.5 2.60218 22.342 2.22064 22.0607 1.93934C21.7794 1.65804 21.3978 1.5 21 1.5C20.6022 1.5 20.2207 1.65804 19.9394 1.93934C19.6581 2.22064 19.5 2.60218 19.5 3V12.0694C15.2715 12.4554 11.3546 14.4567 8.56396 17.6569C5.77335 20.8572 4.3239 25.0101 4.5171 29.2518C4.71031 33.4935 6.53129 37.4975 9.60128 40.4308C12.6713 43.3641 16.7539 45.0011 21 45.0011C25.2461 45.0011 29.3288 43.3641 32.3987 40.4308C35.4687 37.4975 37.2897 33.4935 37.4829 29.2518C37.6761 25.0101 36.2267 20.8572 33.4361 17.6569C30.6455 14.4567 26.7285 12.4554 22.5 12.0694ZM34.4138 27H28.4569C28.1738 21.6825 26.4338 17.9325 24.8119 15.5513C27.3598 16.3058 29.6291 17.7939 31.3366 19.8299C33.0442 21.8659 34.1144 24.3597 34.4138 27ZM16.545 30H25.455C25.08 36.285 22.4306 39.9281 21 41.4525C19.5675 39.9244 16.9181 36.2831 16.545 30ZM16.545 27C16.92 20.715 19.5694 17.0719 21 15.5475C22.4325 17.0756 25.0819 20.7169 25.455 27H16.545ZM17.1881 15.5513C15.5625 17.9325 13.8263 21.6825 13.5431 27H7.58627C7.88563 24.3597 8.95586 21.8659 10.6634 19.8299C12.371 17.7939 14.6403 16.3058 17.1881 15.5513ZM7.58627 30H13.5431C13.8263 35.3175 15.5663 39.0675 17.1881 41.4487C14.6403 40.6942 12.371 39.2061 10.6634 37.1701C8.95586 35.1341 7.88563 32.6403 7.58627 30ZM24.8119 41.4487C26.4338 39.0675 28.1738 35.3175 28.4569 30H34.4138C34.1144 32.6403 33.0442 35.1341 31.3366 37.1701C29.6291 39.2061 27.3598 40.6942 24.8119 41.4487ZM48 16.5C48 16.8978 47.842 17.2794 47.5607 17.5607C47.2794 17.842 46.8978 18 46.5 18H45V19.5C45 19.8978 44.842 20.2794 44.5607 20.5607C44.2794 20.842 43.8978 21 43.5 21C43.1022 21 42.7207 20.842 42.4394 20.5607C42.158 20.2794 42 19.8978 42 19.5V18H40.5C40.1022 18 39.7207 17.842 39.4394 17.5607C39.158 17.2794 39 16.8978 39 16.5C39 16.1022 39.158 15.7206 39.4394 15.4393C39.7207 15.158 40.1022 15 40.5 15H42V13.5C42 13.1022 42.158 12.7206 42.4394 12.4393C42.7207 12.158 43.1022 12 43.5 12C43.8978 12 44.2794 12.158 44.5607 12.4393C44.842 12.7206 45 13.1022 45 13.5V15H46.5C46.8978 15 47.2794 15.158 47.5607 15.4393C47.842 15.7206 48 16.1022 48 16.5ZM28.5 7.5C28.5 7.10218 28.658 6.72064 28.9394 6.43934C29.2207 6.15804 29.6022 6 30 6H33V3C33 2.60218 33.158 2.22064 33.4394 1.93934C33.7207 1.65804 34.1022 1.5 34.5 1.5C34.8978 1.5 35.2794 1.65804 35.5607 1.93934C35.842 2.22064 36 2.60218 36 3V6H39C39.3978 6 39.7794 6.15804 40.0607 6.43934C40.342 6.72064 40.5 7.10218 40.5 7.5C40.5 7.89782 40.342 8.27936 40.0607 8.56066C39.7794 8.84196 39.3978 9 39 9H36V12C36 12.3978 35.842 12.7794 35.5607 13.0607C35.2794 13.342 34.8978 13.5 34.5 13.5C34.1022 13.5 33.7207 13.342 33.4394 13.0607C33.158 12.7794 33 12.3978 33 12V9H30C29.6022 9 29.2207 8.84196 28.9394 8.56066C28.658 8.27936 28.5 7.89782 28.5 7.5Z" />
</g>
<defs>
<clipPath id="clip0_587_3019">
<rect width="24" height="24" fill="white" transform="scale(2)"/>
</clipPath>
</defs>
</svg>
