<svg width="48" height="48" viewBox="0 0 48 48" fill="currentColor" xmlns="http://www.w3.org/2000/svg">
<path d="M26.25 24.0001C26.25 24.4451 26.118 24.8801 25.8708 25.2501C25.6236 25.6201 25.2722 25.9085 24.861 26.0788C24.4499 26.2491 23.9975 26.2936 23.561 26.2068C23.1246 26.12 22.7237 25.9057 22.409 25.591C22.0943 25.2764 21.88 24.8755 21.7932 24.439C21.7064 24.0026 21.751 23.5502 21.9213 23.139C22.0916 22.7279 22.38 22.3765 22.75 22.1293C23.12 21.882 23.555 21.7501 24 21.7501C24.5967 21.7501 25.169 21.9871 25.591 22.4091C26.0129 22.831 26.25 23.4033 26.25 24.0001ZM15.75 21.7501C15.305 21.7501 14.87 21.882 14.5 22.1293C14.13 22.3765 13.8416 22.7279 13.6713 23.139C13.501 23.5502 13.4564 24.0026 13.5432 24.439C13.63 24.8755 13.8443 25.2764 14.159 25.591C14.4737 25.9057 14.8746 26.12 15.311 26.2068C15.7475 26.2936 16.1999 26.2491 16.611 26.0788C17.0222 25.9085 17.3736 25.6201 17.6208 25.2501C17.868 24.8801 18 24.4451 18 24.0001C18 23.4033 17.7629 22.831 17.341 22.4091C16.919 21.9871 16.3467 21.7501 15.75 21.7501ZM32.25 21.7501C31.805 21.7501 31.37 21.882 31 22.1293C30.63 22.3765 30.3416 22.7279 30.1713 23.139C30.001 23.5502 29.9564 24.0026 30.0432 24.439C30.13 24.8755 30.3443 25.2764 30.659 25.591C30.9737 25.9057 31.3746 26.12 31.811 26.2068C32.2475 26.2936 32.6999 26.2491 33.111 26.0788C33.5222 25.9085 33.8736 25.6201 34.1208 25.2501C34.368 24.8801 34.5 24.4451 34.5 24.0001C34.5 23.4033 34.2629 22.831 33.841 22.4091C33.419 21.9871 32.8467 21.7501 32.25 21.7501ZM43.5 24.0001C43.5007 27.3667 42.6298 30.6761 40.9721 33.6063C39.3143 36.5365 36.9262 38.9876 34.0401 40.721C31.154 42.4544 27.8683 43.411 24.5028 43.4978C21.1373 43.5846 17.8066 42.7986 14.835 41.2163L8.45062 43.3444C7.92204 43.5207 7.3548 43.5463 6.81249 43.4183C6.27018 43.2903 5.77423 43.0138 5.38022 42.6198C4.98622 42.2258 4.70973 41.7299 4.58175 41.1876C4.45376 40.6453 4.47935 40.078 4.65562 39.5494L6.78375 33.1651C5.39278 30.5499 4.61587 27.6522 4.512 24.6919C4.40812 21.7316 4.98001 18.7866 6.18426 16.0803C7.3885 13.3741 9.19345 10.9777 11.4621 9.07317C13.7307 7.16863 16.4035 5.80595 19.2774 5.08857C22.1513 4.3712 25.1509 4.31797 28.0484 4.93294C30.946 5.5479 33.6654 6.8149 36.0002 8.63775C38.3349 10.4606 40.2238 12.7914 41.5233 15.4532C42.8228 18.1151 43.4988 21.038 43.5 24.0001ZM40.5 24.0001C40.4993 21.469 39.9163 18.9721 38.7962 16.7025C37.676 14.4328 36.0488 12.4512 34.0403 10.9111C32.0318 9.37099 29.6959 8.31357 27.2133 7.82066C24.7308 7.32775 22.1681 7.41257 19.7236 8.06855C17.279 8.72454 15.0182 9.9341 13.1159 11.6037C11.2136 13.2732 9.72097 15.358 8.75336 17.6968C7.78576 20.0356 7.36916 22.5656 7.5358 25.0911C7.70244 27.6166 8.44786 30.07 9.71437 32.2613C9.82067 32.4453 9.88668 32.6497 9.90801 32.8611C9.92934 33.0725 9.90552 33.2861 9.83812 33.4876L7.5 40.5001L14.5125 38.1619C14.6652 38.1099 14.8255 38.0833 14.9869 38.0832C15.2503 38.0836 15.509 38.1535 15.7369 38.2857C18.2453 39.737 21.0916 40.502 23.9896 40.5038C26.8875 40.5057 29.7349 39.7442 32.2451 38.2961C34.7553 36.848 36.8398 34.7643 38.2889 32.2547C39.7381 29.745 40.5007 26.898 40.5 24.0001Z" />
</svg>
