<svg width="48" height="48" viewBox="0 0 48 48" fill="currentColor" xmlns="http://www.w3.org/2000/svg">
<path d="M41.5612 25.0614L28.0613 38.5614C27.7798 38.8428 27.398 39.0009 27 39.0009C26.602 39.0009 26.2202 38.8428 25.9387 38.5614C25.6573 38.2799 25.4992 37.8981 25.4992 37.5001C25.4992 37.1021 25.6573 36.7203 25.9387 36.4389L36.8794 25.5001H7.5C7.10218 25.5001 6.72064 25.3421 6.43934 25.0608C6.15804 24.7795 6 24.3979 6 24.0001C6 23.6023 6.15804 23.2207 6.43934 22.9394C6.72064 22.6581 7.10218 22.5001 7.5 22.5001H36.8794L25.9387 11.5614C25.6573 11.2799 25.4992 10.8981 25.4992 10.5001C25.4992 10.1021 25.6573 9.72031 25.9387 9.43885C26.2202 9.15739 26.602 8.99927 27 8.99927C27.398 8.99927 27.7798 9.15739 28.0613 9.43885L41.5612 22.9389C41.7007 23.0782 41.8114 23.2436 41.8868 23.4257C41.9623 23.6078 42.0012 23.803 42.0012 24.0001C42.0012 24.1972 41.9623 24.3924 41.8868 24.5745C41.8114 24.7566 41.7007 24.922 41.5612 25.0614Z" />
</svg>
