<svg width="48" height="48" viewBox="0 0 48 48" fill="currentColor" xmlns="http://www.w3.org/2000/svg">
<path d="M32.625 8.95319C30.309 6.27838 27.7023 3.86979 24.8531 1.77194C24.6009 1.59526 24.3004 1.50049 23.9925 1.50049C23.6846 1.50049 23.3841 1.59526 23.1319 1.77194C20.288 3.87067 17.6863 6.27923 15.375 8.95319C10.2206 14.8726 7.5 21.1126 7.5 27.0001C7.5 31.3761 9.23839 35.573 12.3327 38.6673C15.4271 41.7617 19.6239 43.5001 24 43.5001C28.3761 43.5001 32.5729 41.7617 35.6673 38.6673C38.7616 35.573 40.5 31.3761 40.5 27.0001C40.5 21.1126 37.7794 14.8726 32.625 8.95319ZM24 40.5001C20.4208 40.4961 16.9893 39.0725 14.4584 36.5416C11.9276 34.0107 10.504 30.5793 10.5 27.0001C10.5 16.2694 20.9006 7.31257 24 4.87507C27.0994 7.31257 37.5 16.2657 37.5 27.0001C37.496 30.5793 36.0724 34.0107 33.5416 36.5416C31.0107 39.0725 27.5792 40.4961 24 40.5001ZM34.4794 28.7513C34.0904 30.9239 33.0452 32.9251 31.4843 34.4856C29.9235 36.0461 27.922 37.091 25.7494 37.4794C25.6669 37.4927 25.5835 37.4995 25.5 37.5001C25.1237 37.5 24.7613 37.3585 24.4844 37.1036C24.2076 36.8488 24.0367 36.4992 24.0055 36.1242C23.9744 35.7493 24.0853 35.3763 24.3163 35.0793C24.5472 34.7822 24.8814 34.5829 25.2525 34.5207C28.3594 33.9976 30.9956 31.3613 31.5225 28.2488C31.5891 27.8565 31.8089 27.5066 32.1335 27.2763C32.458 27.046 32.8608 26.9541 33.2531 27.0207C33.6455 27.0873 33.9953 27.3071 34.2256 27.6317C34.4559 27.9562 34.5479 28.359 34.4812 28.7513H34.4794Z" />
</svg>
