<svg width="48" height="48" viewBox="0 0 48 48" fill="currentColor" xmlns="http://www.w3.org/2000/svg">
<path d="M40.5 13.5H24.6206L19.5 8.37939C19.2224 8.0996 18.892 7.87778 18.528 7.72681C18.1639 7.57585 17.7735 7.49876 17.3794 7.50002H7.5C6.70435 7.50002 5.94129 7.81609 5.37868 8.37869C4.81607 8.9413 4.5 9.70437 4.5 10.5V37.6163C4.50099 38.3808 4.80513 39.1137 5.34573 39.6543C5.88632 40.1949 6.61924 40.499 7.38375 40.5H40.6669C41.418 40.499 42.138 40.2002 42.6691 39.6691C43.2002 39.138 43.499 38.418 43.5 37.6669V16.5C43.5 15.7044 43.1839 14.9413 42.6213 14.3787C42.0587 13.8161 41.2957 13.5 40.5 13.5ZM7.5 10.5H17.3794L20.3794 13.5H7.5V10.5ZM40.5 37.5H7.5V16.5H40.5V37.5Z" />
</svg>
