<svg width="48" height="48" viewBox="0 0 48 48" fill="currentColor" xmlns="http://www.w3.org/2000/svg">
<path d="M5.99901 10.5V19.5C5.99901 19.8978 6.15704 20.2794 6.43835 20.5607C6.71965 20.842 7.10118 21 7.49901 21H16.499C16.8968 21 17.2784 20.842 17.5597 20.5607C17.841 20.2794 17.999 19.8978 17.999 19.5C17.999 19.1022 17.841 18.7207 17.5597 18.4394C17.2784 18.1581 16.8968 18 16.499 18H11.3615L16.3471 13.4325L16.394 13.3875C18.4789 11.3034 21.1316 9.87988 24.0208 9.29467C26.9101 8.70946 29.9077 8.98856 32.6392 10.0971C35.3707 11.2056 37.7151 13.0944 39.3794 15.5276C41.0437 17.9607 41.9541 20.8303 41.997 23.7779C42.0399 26.7255 41.2133 29.6204 39.6205 32.1009C38.0277 34.5814 35.7393 36.5377 33.0412 37.7252C30.3431 38.9127 27.3548 39.2789 24.4498 38.778C21.5448 38.2771 18.8518 36.9313 16.7071 34.9088C16.418 34.6353 16.032 34.4878 15.6341 34.4989C15.2362 34.51 14.8591 34.6787 14.5856 34.9678C14.3121 35.257 14.1646 35.643 14.1757 36.0408C14.1868 36.4387 14.3555 36.8159 14.6446 37.0894C17.9794 40.252 22.4031 42.0104 26.999 42H27.2465C30.1945 41.9596 33.0874 41.1958 35.6711 39.7755C38.2547 38.3552 40.4499 36.3221 42.0638 33.8548C43.6776 31.3874 44.6607 28.5614 44.9266 25.6252C45.1925 22.6889 44.7331 19.7323 43.5888 17.0152C42.4445 14.2981 40.6502 11.9036 38.3638 10.0423C36.0773 8.18102 33.3687 6.90984 30.4759 6.34051C27.5831 5.77118 24.5948 5.92113 21.7735 6.77718C18.9523 7.63324 16.3845 9.16918 14.2959 11.25L8.99901 16.0875V10.5C8.99901 10.1022 8.84097 9.72067 8.55967 9.43936C8.27836 9.15806 7.89683 9.00002 7.49901 9.00002C7.10118 9.00002 6.71965 9.15806 6.43835 9.43936C6.15704 9.72067 5.99901 10.1022 5.99901 10.5Z" />
</svg>
