<svg width="48" height="48" viewBox="0 0 48 48" fill="currentColor" xmlns="http://www.w3.org/2000/svg">
<path d="M45 25.5V37.5C45 38.2957 44.6839 39.0587 44.1213 39.6213C43.5587 40.1839 42.7957 40.5 42 40.5H6C5.20435 40.5 4.44129 40.1839 3.87868 39.6213C3.31607 39.0587 3 38.2957 3 37.5V25.5C3 24.7044 3.31607 23.9413 3.87868 23.3787C4.44129 22.8161 5.20435 22.5 6 22.5H13.5C13.8978 22.5 14.2794 22.658 14.5607 22.9393C14.842 23.2206 15 23.6022 15 24C15 24.3978 14.842 24.7794 14.5607 25.0607C14.2794 25.342 13.8978 25.5 13.5 25.5H6V37.5H42V25.5H34.5C34.1022 25.5 33.7206 25.342 33.4393 25.0607C33.158 24.7794 33 24.3978 33 24C33 23.6022 33.158 23.2206 33.4393 22.9393C33.7206 22.658 34.1022 22.5 34.5 22.5H42C42.7957 22.5 43.5587 22.8161 44.1213 23.3787C44.6839 23.9413 45 24.7044 45 25.5ZM22.9387 25.0613C23.0781 25.2007 23.2435 25.3114 23.4256 25.3868C23.6077 25.4623 23.8029 25.5012 24 25.5012C24.1971 25.5012 24.3923 25.4623 24.5744 25.3868C24.7565 25.3114 24.9219 25.2007 25.0613 25.0613L34.0613 16.0613C34.3427 15.7798 34.5008 15.398 34.5008 15C34.5008 14.602 34.3427 14.2202 34.0613 13.9387C33.7798 13.6573 33.398 13.4992 33 13.4992C32.602 13.4992 32.2202 13.6573 31.9387 13.9387L25.5 20.3794V4.5C25.5 4.10218 25.342 3.72064 25.0607 3.43934C24.7794 3.15804 24.3978 3 24 3C23.6022 3 23.2206 3.15804 22.9393 3.43934C22.658 3.72064 22.5 4.10218 22.5 4.5V20.3794L16.0613 13.9387C15.7798 13.6573 15.398 13.4992 15 13.4992C14.602 13.4992 14.2202 13.6573 13.9388 13.9388C13.6573 14.2202 13.4992 14.602 13.4992 15C13.4992 15.398 13.6573 15.7798 13.9387 16.0613L22.9387 25.0613ZM37.5 31.5C37.5 31.055 37.368 30.62 37.1208 30.25C36.8736 29.88 36.5222 29.5916 36.111 29.4213C35.6999 29.251 35.2475 29.2064 34.811 29.2932C34.3746 29.38 33.9737 29.5943 33.659 29.909C33.3443 30.2237 33.13 30.6246 33.0432 31.061C32.9564 31.4975 33.001 31.9499 33.1713 32.361C33.3416 32.7722 33.63 33.1236 34 33.3708C34.37 33.618 34.805 33.75 35.25 33.75C35.8467 33.75 36.419 33.5129 36.841 33.091C37.2629 32.669 37.5 32.0967 37.5 31.5Z" />
</svg>
