<svg width="24" height="24" viewBox="0 0 24 24" fill="none" xmlns="http://www.w3.org/2000/svg">
<path d="M10.8028 18C10.8028 19.1 9.91891 20 8.83864 20C7.75837 20 6.87451 19.1 6.87451 18C6.87451 16.9 7.75837 16 8.83864 16C9.91891 16 10.8028 16.9 10.8028 18ZM8.83864 10C7.75837 10 6.87451 10.9 6.87451 12C6.87451 13.1 7.75837 14 8.83864 14C9.91891 14 10.8028 13.1 10.8028 12C10.8028 10.9 9.91891 10 8.83864 10ZM8.83864 4C7.75837 4 6.87451 4.9 6.87451 6C6.87451 7.1 7.75837 8 8.83864 8C9.91891 8 10.8028 7.1 10.8028 6C10.8028 4.9 9.91891 4 8.83864 4ZM14.731 8C15.8113 8 16.6951 7.1 16.6951 6C16.6951 4.9 15.8113 4 14.731 4C13.6507 4 12.7669 4.9 12.7669 6C12.7669 7.1 13.6507 8 14.731 8ZM14.731 10C13.6507 10 12.7669 10.9 12.7669 12C12.7669 13.1 13.6507 14 14.731 14C15.8113 14 16.6951 13.1 16.6951 12C16.6951 10.9 15.8113 10 14.731 10ZM14.731 16C13.6507 16 12.7669 16.9 12.7669 18C12.7669 19.1 13.6507 20 14.731 20C15.8113 20 16.6951 19.1 16.6951 18C16.6951 16.9 15.8113 16 14.731 16Z" fill="#6C727E"/>
</svg>
