<svg width="48" height="48" viewBox="0 0 48 48" fill="currentColor" xmlns="http://www.w3.org/2000/svg">
<path d="M40.0611 19.0612L25.0611 34.0612C24.9218 34.2007 24.7564 34.3113 24.5743 34.3868C24.3922 34.4623 24.197 34.5012 23.9999 34.5012C23.8027 34.5012 23.6075 34.4623 23.4254 34.3868C23.2434 34.3113 23.0779 34.2007 22.9386 34.0612L7.93861 19.0612C7.65715 18.7798 7.49902 18.398 7.49902 18C7.49902 17.6019 7.65715 17.2202 7.93861 16.9387C8.22007 16.6573 8.60181 16.4991 8.99986 16.4991C9.3979 16.4991 9.77965 16.6573 10.0611 16.9387L23.9999 30.8794L37.9386 16.9387C38.078 16.7994 38.2434 16.6888 38.4255 16.6134C38.6076 16.538 38.8028 16.4991 38.9999 16.4991C39.197 16.4991 39.3921 16.538 39.5742 16.6134C39.7563 16.6888 39.9217 16.7994 40.0611 16.9387C40.2005 17.0781 40.311 17.2435 40.3864 17.4256C40.4619 17.6077 40.5007 17.8029 40.5007 18C40.5007 18.1971 40.4619 18.3922 40.3864 18.5743C40.311 18.7564 40.2005 18.9219 40.0611 19.0612Z" />
</svg>
