<svg width="48" height="48" viewBox="0 0 48 48" fill="currentColor" xmlns="http://www.w3.org/2000/svg">
<path d="M40.5 6H16.5C16.1022 6 15.7206 6.15804 15.4393 6.43934C15.158 6.72064 15 7.10218 15 7.5V15H7.5C7.10218 15 6.72064 15.158 6.43934 15.4393C6.15804 15.7206 6 16.1022 6 16.5V40.5C6 40.8978 6.15804 41.2794 6.43934 41.5607C6.72064 41.842 7.10218 42 7.5 42H31.5C31.8978 42 32.2794 41.842 32.5607 41.5607C32.842 41.2794 33 40.8978 33 40.5V33H40.5C40.8978 33 41.2794 32.842 41.5607 32.5607C41.842 32.2794 42 31.8978 42 31.5V7.5C42 7.10218 41.842 6.72064 41.5607 6.43934C41.2794 6.15804 40.8978 6 40.5 6ZM30 39H9V18H30V39ZM39 30H33V16.5C33 16.1022 32.842 15.7206 32.5607 15.4393C32.2794 15.158 31.8978 15 31.5 15H18V9H39V30Z" />
</svg>
