<svg width="48" height="48" viewBox="0 0 48 48" fill="currentColor" xmlns="http://www.w3.org/2000/svg">
<path d="M42.6206 13.7568L34.2431 5.37746C33.9646 5.09881 33.6338 4.87777 33.2698 4.72696C32.9058 4.57616 32.5156 4.49854 32.1216 4.49854C31.7276 4.49854 31.3374 4.57616 30.9734 4.72696C30.6093 4.87777 30.2786 5.09881 30 5.37746L6.87939 28.5C6.5996 28.7775 6.37778 29.1079 6.22681 29.472C6.07585 29.836 5.99876 30.2265 6.00002 30.6206V39C6.00002 39.7956 6.31609 40.5587 6.87869 41.1213C7.4413 41.6839 8.20437 42 9.00002 42H17.3794C17.7735 42.0012 18.1639 41.9241 18.528 41.7732C18.892 41.6222 19.2224 41.4004 19.5 41.1206L42.6206 18C42.8993 17.7214 43.1203 17.3906 43.2711 17.0266C43.4219 16.6626 43.4996 16.2724 43.4996 15.8784C43.4996 15.4844 43.4219 15.0942 43.2711 14.7302C43.1203 14.3662 42.8993 14.0354 42.6206 13.7568ZM9.62064 30L25.5 14.1206L28.6294 17.25L12.75 33.1275L9.62064 30ZM9.00002 33.6206L14.3794 39H9.00002V33.6206ZM18 38.3793L14.8706 35.25L30.75 19.3706L33.8794 22.5L18 38.3793ZM36 20.3793L27.6206 12L32.1206 7.49996L40.5 15.8775L36 20.3793Z" />
</svg>
