<svg width="48" height="48" viewBox="0 0 48 48" fill="currentColor" xmlns="http://www.w3.org/2000/svg">
<path d="M24 4.5C20.1433 4.5 16.3731 5.64366 13.1664 7.78634C9.95963 9.92903 7.46027 12.9745 5.98436 16.5377C4.50845 20.1008 4.12228 24.0216 4.8747 27.8043C5.62711 31.5869 7.4843 35.0615 10.2114 37.7886C12.9386 40.5157 16.4131 42.3729 20.1957 43.1253C23.9784 43.8777 27.8992 43.4916 31.4623 42.0156C35.0255 40.5397 38.071 38.0404 40.2137 34.8336C42.3564 31.6269 43.5 27.8567 43.5 24C43.4945 18.83 41.4383 13.8732 37.7826 10.2174C34.1268 6.56167 29.1701 4.50546 24 4.5ZM24 40.5C20.7366 40.5 17.5465 39.5323 14.8331 37.7192C12.1197 35.9062 10.0048 33.3293 8.756 30.3143C7.50715 27.2993 7.1804 23.9817 7.81705 20.781C8.45371 17.5803 10.0252 14.6403 12.3327 12.3327C14.6403 10.0252 17.5803 8.4537 20.781 7.81704C23.9817 7.18039 27.2993 7.50714 30.3143 8.75599C33.3293 10.0048 35.9062 12.1197 37.7193 14.8331C39.5323 17.5465 40.5 20.7366 40.5 24C40.495 28.3745 38.7551 32.5685 35.6618 35.6618C32.5685 38.7551 28.3746 40.495 24 40.5ZM32.3288 13.6575L20.3288 19.6575C20.0386 19.8032 19.8032 20.0386 19.6575 20.3287L13.6575 32.3288C13.543 32.5575 13.489 32.8118 13.5004 33.0673C13.5119 33.3229 13.5886 33.5713 13.7231 33.7888C13.8576 34.0064 14.0456 34.186 14.2691 34.3105C14.4926 34.4349 14.7442 34.5002 15 34.5C15.2329 34.4997 15.4625 34.4458 15.6713 34.3425L27.6713 28.3425C27.9614 28.1968 28.1968 27.9614 28.3425 27.6712L34.3425 15.6713C34.4841 15.3895 34.5332 15.0703 34.483 14.759C34.4328 14.4477 34.2858 14.1601 34.0628 13.9372C33.8399 13.7142 33.5523 13.5672 33.241 13.517C32.9297 13.4668 32.6105 13.5159 32.3288 13.6575ZM25.875 25.875L18.3544 29.6456L22.125 22.125L29.6531 18.3619L25.875 25.875Z" />
</svg>
