<svg width="48" height="48" viewBox="0 0 48 48" fill="currentColor" xmlns="http://www.w3.org/2000/svg">
<g clip-path="url(#clip0_587_3030)">
<path d="M24.0001 35.4544L34.2601 41.7637C34.5263 41.9253 34.8344 42.0044 35.1455 41.9909C35.4567 41.9775 35.7568 41.872 36.008 41.688C36.2593 41.504 36.4503 41.2497 36.557 40.9571C36.6638 40.6645 36.6813 40.3469 36.6076 40.0444L33.8176 28.2712L42.9488 20.3962C43.1816 20.1918 43.3495 19.9237 43.4317 19.625C43.5138 19.3262 43.5067 19.01 43.4112 18.7152C43.3157 18.4205 43.1359 18.1602 42.8942 17.9664C42.6524 17.7727 42.3592 17.654 42.0507 17.625L30.0676 16.65L25.4513 5.47499C25.3337 5.18668 25.1328 4.93996 24.8743 4.7663C24.6158 4.59263 24.3115 4.49988 24.0001 4.49988C23.6887 4.49988 23.3843 4.59263 23.1259 4.7663C22.8674 4.93996 22.6665 5.18668 22.5488 5.47499L17.9326 16.65L5.94946 17.625C5.63889 17.6523 5.34325 17.7704 5.09946 17.9648C4.85568 18.1591 4.67456 18.4209 4.57874 18.7176C4.48292 19.0143 4.47664 19.3326 4.56069 19.6328C4.64474 19.933 4.8154 20.2018 5.05133 20.4056L14.1826 28.2806L11.3926 40.0444C11.3188 40.3469 11.3364 40.6645 11.4431 40.9571C11.5498 41.2497 11.7409 41.504 11.9921 41.688C12.2434 41.872 12.5435 41.9775 12.8546 41.9909C13.1657 42.0044 13.4739 41.9253 13.7401 41.7637L24.0001 35.4544Z" stroke="black" stroke-width="1.5" stroke-linecap="round" stroke-linejoin="round"/>
</g>
<defs>
<clipPath id="clip0_587_3030">
<rect width="24" height="24" fill="white" transform="scale(2)"/>
</clipPath>
</defs>
</svg>
