<svg width="48" height="48" viewBox="0 0 48 48" fill="currentColor" xmlns="http://www.w3.org/2000/svg">
<path d="M43.2375 9.28686C43.0066 8.75345 42.624 8.29967 42.1373 7.98196C41.6506 7.66426 41.0812 7.49665 40.5 7.49999H7.49995C6.91932 7.50113 6.3515 7.67074 5.86537 7.98825C5.37924 8.30576 4.9957 8.75751 4.76126 9.28871C4.52683 9.81991 4.45158 10.4077 4.54465 10.9808C4.63772 11.554 4.8951 12.0878 5.28558 12.5175L5.30058 12.5344L18 26.0944V40.5C17.9998 41.0429 18.1471 41.5758 18.4259 42.0416C18.7048 42.5075 19.1049 42.8889 19.5836 43.1453C20.0622 43.4016 20.6014 43.5233 21.1437 43.4972C21.6861 43.4712 22.2112 43.2985 22.6631 42.9975L28.6631 38.9962C29.0744 38.7223 29.4116 38.3509 29.6449 37.9152C29.8781 37.4795 30.0001 36.9929 30 36.4987V26.0944L42.7012 12.5344L42.7162 12.5175C43.1108 12.0897 43.3707 11.5552 43.4634 10.9807C43.5561 10.4061 43.4775 9.81702 43.2375 9.28686ZM27.4087 24.4837C27.1492 24.7588 27.0032 25.1218 27 25.5V36.4987L21 40.5V25.5C21.0001 25.1191 20.8553 24.7524 20.5949 24.4744L7.49995 10.5H40.5L27.4087 24.4837Z" />
</svg>
