<svg width="48" height="48" viewBox="0 0 48 48" fill="currentColor" xmlns="http://www.w3.org/2000/svg">
<path d="M10.11 6.49125C9.97825 6.34277 9.81837 6.2219 9.63958 6.13566C9.4608 6.04942 9.26668 5.99952 9.06847 5.98886C8.87026 5.9782 8.6719 6.00698 8.4849 6.07354C8.2979 6.1401 8.12596 6.24312 7.97906 6.37661C7.83217 6.51011 7.71323 6.67144 7.62914 6.85124C7.54505 7.03105 7.49748 7.22575 7.48919 7.42408C7.48091 7.6224 7.51207 7.8204 7.58087 8.00659C7.64966 8.19278 7.75473 8.36347 7.88998 8.50875L11.4975 12.4781C4.68748 16.6575 1.75873 23.1 1.62936 23.3925C1.54407 23.5843 1.5 23.7919 1.5 24.0019C1.5 24.2118 1.54407 24.4194 1.62936 24.6113C1.69498 24.7594 3.28311 28.2806 6.81373 31.8113C11.5181 36.5138 17.46 39 24 39C27.3611 39.0192 30.6883 38.3271 33.7631 36.9694L37.8881 41.5088C38.0198 41.6572 38.1797 41.7781 38.3585 41.8643C38.5373 41.9506 38.7314 42.0005 38.9296 42.0111C39.1278 42.0218 39.3262 41.993 39.5132 41.9265C39.7002 41.8599 39.8721 41.7569 40.019 41.6234C40.1659 41.4899 40.2849 41.3286 40.369 41.1488C40.453 40.969 40.5006 40.7743 40.5089 40.5759C40.5172 40.3776 40.486 40.1796 40.4172 39.9934C40.3484 39.8072 40.2434 39.6365 40.1081 39.4913L10.11 6.49125ZM18.9844 20.7113L26.7975 29.3081C25.6209 29.9271 24.2721 30.1378 22.9628 29.9071C21.6535 29.6764 20.4579 29.0174 19.5638 28.0335C18.6696 27.0497 18.1275 25.7967 18.0227 24.4714C17.9178 23.1461 18.2561 21.8235 18.9844 20.7113ZM24 36C18.2287 36 13.1869 33.9019 9.01311 29.7656C7.29995 28.0631 5.84289 26.121 4.68748 24C5.56686 22.3519 8.37373 17.7394 13.5656 14.7413L16.9406 18.4444C15.634 20.1178 14.961 22.1993 15.0407 24.3209C15.1204 26.4426 15.9476 28.4677 17.376 30.0385C18.8045 31.6092 20.7423 32.6243 22.8468 32.9045C24.9514 33.1846 27.0872 32.7117 28.8769 31.5694L31.6387 34.6069C29.2012 35.542 26.6107 36.0145 24 36ZM25.125 18.1069C24.7341 18.0323 24.3889 17.8055 24.1653 17.4764C23.9416 17.1472 23.8579 16.7427 23.9325 16.3519C24.0071 15.961 24.2339 15.6158 24.563 15.3922C24.8921 15.1685 25.2966 15.0848 25.6875 15.1594C27.5992 15.53 29.34 16.5087 30.65 17.9495C31.9601 19.3904 32.7693 21.2161 32.9569 23.1544C32.9939 23.5505 32.8721 23.945 32.6182 24.2513C32.3643 24.5576 31.9992 24.7504 31.6031 24.7875C31.5563 24.7903 31.5093 24.7903 31.4625 24.7875C31.0876 24.7891 30.7256 24.6503 30.448 24.3983C30.1704 24.1464 29.9972 23.7996 29.9625 23.4263C29.8362 22.137 29.2972 20.9229 28.4257 19.9645C27.5541 19.0061 26.3965 18.3546 25.125 18.1069ZM46.365 24.6113C46.2862 24.7875 44.3869 28.9931 40.11 32.8238C39.9638 32.9588 39.7923 33.0634 39.6053 33.1316C39.4184 33.1997 39.2197 33.2299 39.0209 33.2205C38.8222 33.2111 38.6273 33.1622 38.4476 33.0767C38.2679 32.9912 38.107 32.8709 37.9743 32.7226C37.8415 32.5743 37.7397 32.4011 37.6745 32.2131C37.6094 32.0251 37.5823 31.826 37.5949 31.6274C37.6075 31.4288 37.6594 31.2347 37.7478 31.0564C37.8361 30.8781 37.959 30.7191 38.1094 30.5888C40.2076 28.7037 41.9702 26.4757 43.3219 24C42.1639 21.8771 40.7036 19.9337 38.9869 18.2306C34.8131 14.0981 29.7712 12 24 12C22.784 11.9985 21.5699 12.097 20.37 12.2944C20.1749 12.3289 19.9748 12.3244 19.7815 12.2812C19.5881 12.2379 19.4052 12.1568 19.2433 12.0425C19.0815 11.9281 18.9439 11.7829 18.8385 11.6151C18.7331 11.4473 18.662 11.2602 18.6293 11.0648C18.5966 10.8694 18.603 10.6694 18.648 10.4764C18.693 10.2835 18.7759 10.1013 18.8917 9.94054C19.0075 9.77976 19.154 9.64353 19.3228 9.5397C19.4916 9.43587 19.6793 9.36651 19.875 9.33563C21.2384 9.11051 22.6181 8.99825 24 9C30.54 9 36.4819 11.4863 41.1862 16.1906C44.7169 19.7213 46.305 23.2444 46.3706 23.3925C46.4559 23.5843 46.5 23.7919 46.5 24.0019C46.5 24.2118 46.4559 24.4194 46.3706 24.6113H46.365Z" />
</svg>
