<svg width="48" height="48" viewBox="0 0 48 48" fill="currentColor" xmlns="http://www.w3.org/2000/svg">
<path d="M41.1206 20.3775L26.1206 5.3775C25.5581 4.81531 24.7953 4.49951 24 4.49951C23.2047 4.49951 22.4419 4.81531 21.8794 5.3775L6.87939 20.3775C6.59946 20.6553 6.37757 20.9861 6.2266 21.3505C6.07563 21.7148 5.99862 22.1056 6.00002 22.5V40.5C6.00002 40.8978 6.15805 41.2794 6.43936 41.5607C6.72066 41.842 7.10219 42 7.50002 42H19.5C19.8978 42 20.2794 41.842 20.5607 41.5607C20.842 41.2794 21 40.8978 21 40.5V30H27V40.5C27 40.8978 27.1581 41.2794 27.4394 41.5607C27.7207 41.842 28.1022 42 28.5 42H40.5C40.8978 42 41.2794 41.842 41.5607 41.5607C41.842 41.2794 42 40.8978 42 40.5V22.5C42.0014 22.1056 41.9244 21.7148 41.7734 21.3505C41.6225 20.9861 41.4006 20.6553 41.1206 20.3775ZM39 39H30V28.5C30 28.1022 29.842 27.7206 29.5607 27.4393C29.2794 27.158 28.8978 27 28.5 27H19.5C19.1022 27 18.7207 27.158 18.4394 27.4393C18.1581 27.7206 18 28.1022 18 28.5V39H9.00002V22.5L24 7.5L39 22.5V39Z" />
</svg>
