<svg width="48" height="48" viewBox="0 0 48 48" fill="currentColor" xmlns="http://www.w3.org/2000/svg">
<path d="M31.0613 16.9387C31.2008 17.0781 31.3114 17.2435 31.3869 17.4256C31.4624 17.6077 31.5012 17.8029 31.5012 18C31.5012 18.1971 31.4624 18.3923 31.3869 18.5744C31.3114 18.7565 31.2008 18.9219 31.0613 19.0612L19.0613 31.0612C18.9219 31.2006 18.7565 31.3112 18.5744 31.3866C18.3923 31.462 18.1971 31.5008 18 31.5008C17.803 31.5008 17.6078 31.462 17.4257 31.3866C17.2436 31.3112 17.0782 31.2006 16.9388 31.0612C16.7994 30.9219 16.6889 30.7564 16.6135 30.5743C16.538 30.3923 16.4992 30.1971 16.4992 30C16.4992 29.8029 16.538 29.6077 16.6135 29.4257C16.6889 29.2436 16.7994 29.0781 16.9388 28.9387L28.9388 16.9387C29.0781 16.7993 29.2435 16.6886 29.4256 16.6132C29.6077 16.5377 29.8029 16.4988 30 16.4988C30.1972 16.4988 30.3924 16.5377 30.5745 16.6132C30.7566 16.6886 30.922 16.7993 31.0613 16.9387ZM40.425 7.57499C39.45 6.59987 38.2925 5.82635 37.0185 5.2986C35.7445 4.77086 34.379 4.49924 33 4.49924C31.6211 4.49924 30.2556 4.77086 28.9816 5.2986C27.7076 5.82635 26.5501 6.59987 25.575 7.57499L19.9388 13.2094C19.6573 13.4908 19.4992 13.8726 19.4992 14.2706C19.4992 14.6687 19.6573 15.0504 19.9388 15.3319C20.2203 15.6133 20.602 15.7715 21 15.7715C21.3981 15.7715 21.7798 15.6133 22.0613 15.3319L27.6975 9.70687C29.1092 8.32621 31.0084 7.55796 32.9829 7.56884C34.9575 7.57971 36.8481 8.36883 38.2445 9.76495C39.6408 11.1611 40.4303 13.0515 40.4415 15.0261C40.4527 17.0006 39.6848 18.9 38.3044 20.3119L32.6663 25.9481C32.3848 26.2293 32.2266 26.6108 32.2264 27.0087C32.2263 27.4066 32.3841 27.7882 32.6654 28.0697C32.9466 28.3511 33.3281 28.5094 33.7259 28.5095C34.1238 28.5097 34.5055 28.3518 34.7869 28.0706L40.425 22.425C41.4002 21.45 42.1737 20.2924 42.7014 19.0184C43.2292 17.7444 43.5008 16.379 43.5008 15C43.5008 13.621 43.2292 12.2556 42.7014 10.9816C42.1737 9.70758 41.4002 8.55002 40.425 7.57499ZM25.9388 32.6662L20.3025 38.3025C19.6089 39.0117 18.7815 39.5762 17.8683 39.9634C16.955 40.3506 15.974 40.5528 14.982 40.5583C13.99 40.5637 13.0068 40.3724 12.0894 39.9952C11.1719 39.6181 10.3383 39.0627 9.63692 38.3612C8.93555 37.6597 8.38031 36.8261 8.00334 35.9085C7.62638 34.991 7.43518 34.0077 7.44081 33.0158C7.44645 32.0238 7.64882 31.0428 8.03619 30.1296C8.42356 29.2164 8.98825 28.3891 9.69755 27.6956L15.3319 22.0612C15.6134 21.7798 15.7715 21.398 15.7715 21C15.7715 20.6019 15.6134 20.2202 15.3319 19.9387C15.0505 19.6573 14.6687 19.4992 14.2707 19.4992C13.8726 19.4992 13.4909 19.6573 13.2094 19.9387L7.57505 25.575C5.60582 27.5442 4.49951 30.2151 4.49951 33C4.49951 35.7849 5.60582 38.4558 7.57505 40.425C9.54428 42.3942 12.2151 43.5005 15 43.5005C17.785 43.5005 20.4558 42.3942 22.425 40.425L28.0613 34.7869C28.3425 34.5054 28.5004 34.1238 28.5002 33.7259C28.5 33.328 28.3418 32.9465 28.0604 32.6653C27.7789 32.3841 27.3973 32.2262 26.9994 32.2264C26.6015 32.2266 26.22 32.3848 25.9388 32.6662Z" />
</svg>
