<svg width="48" height="48" viewBox="0 0 48 48" fill="currentColor" xmlns="http://www.w3.org/2000/svg">
<path d="M40.5788 7.42505C38.706 5.55233 36.166 4.50024 33.5175 4.50024C30.869 4.50024 28.329 5.55233 26.4563 7.42505L7.42501 26.4544C5.59142 28.3352 4.57267 30.8627 4.58944 33.4893C4.60621 36.1159 5.65716 38.6301 7.51461 40.4873C9.37206 42.3445 11.8864 43.3951 14.513 43.4116C17.1397 43.428 19.667 42.4089 21.5475 40.5751L40.5806 21.5457C42.4502 19.6715 43.5 17.1322 43.4997 14.485C43.4993 11.8377 42.4489 9.29872 40.5788 7.42505ZM19.4269 38.4544C18.1168 39.7648 16.3398 40.501 14.4869 40.5012C12.634 40.5014 10.8569 39.7655 9.54657 38.4554C8.23623 37.1453 7.5 35.3683 7.49982 33.5154C7.49965 31.6625 8.23555 29.8854 9.54563 28.5751L18 20.1207L27.8813 30.0001L19.4269 38.4544ZM38.4581 19.4251L30 27.8794L20.1225 18.0001L28.5788 9.54568C29.894 8.26078 31.6628 7.54622 33.5015 7.55696C35.3402 7.5677 37.1006 8.30289 38.4007 9.60306C39.7009 10.9032 40.4361 12.6636 40.4469 14.5023C40.4576 16.341 39.743 18.1098 38.4581 19.4251ZM35.565 15.4388C35.7045 15.5781 35.8151 15.7435 35.8906 15.9256C35.9661 16.1077 36.0049 16.3029 36.0049 16.5001C36.0049 16.6972 35.9661 16.8924 35.8906 17.0745C35.8151 17.2566 35.7045 17.422 35.565 17.5613L31.065 22.0613C30.9256 22.2005 30.7602 22.311 30.5782 22.3863C30.3961 22.4616 30.201 22.5003 30.004 22.5002C29.807 22.5001 29.612 22.4612 29.43 22.3858C29.248 22.3103 29.0827 22.1997 28.9434 22.0604C28.8042 21.921 28.6938 21.7556 28.6185 21.5735C28.5432 21.3915 28.5044 21.1964 28.5045 20.9994C28.5046 20.8024 28.5435 20.6073 28.619 20.4253C28.6944 20.2434 28.805 20.078 28.9444 19.9388L33.4444 15.4388C33.7257 15.1577 34.107 14.9998 34.5047 14.9998C34.9023 14.9998 35.2837 15.1577 35.565 15.4388Z" />
</svg>
