<svg width="48" height="48" viewBox="0 0 48 48" fill="currentColor" xmlns="http://www.w3.org/2000/svg">
<path d="M46.0931 22.8056C45.9017 22.4695 45.6454 22.1748 45.3389 21.9388C45.0324 21.7028 44.682 21.5303 44.3081 21.4313C42.9517 21.0821 41.5499 20.9417 40.1512 21.015C40.9012 17.2931 40.3387 14.3494 39.765 12.6038C39.5363 11.8867 39.0487 11.2805 38.3974 10.9033C37.746 10.5262 36.9776 10.4051 36.2418 10.5638C34.3339 10.9887 32.5197 11.7588 30.8887 12.8362C29.6942 10.3962 27.9551 8.26321 25.8056 6.60187C25.2847 6.21119 24.6511 6 24 6C23.3488 6 22.7152 6.21119 22.1943 6.60187C20.0443 8.26273 18.3051 10.3958 17.1112 12.8362C15.4802 11.7588 13.666 10.9887 11.7581 10.5638C11.0223 10.4051 10.2539 10.5262 9.60254 10.9033C8.9512 11.2805 8.46365 11.8867 8.23496 12.6038C7.67246 14.3494 7.10996 17.2913 7.84871 21.015C6.44998 20.9417 5.04826 21.0821 3.69183 21.4313C3.31793 21.5303 2.96751 21.7028 2.66104 21.9388C2.35456 22.1748 2.09817 22.4695 1.90683 22.8056C1.70659 23.15 1.57694 23.5308 1.52543 23.9258C1.47392 24.3208 1.50159 24.7221 1.60683 25.1062C2.24246 27.4631 4.19433 31.9463 10.1062 35.4788C16.0181 39.0112 21.2118 39 24.0093 39C26.8068 39 32.01 39 37.8843 35.4788C43.7962 31.9463 45.7481 27.4631 46.3837 25.1062C46.4903 24.7227 46.5196 24.3217 46.4697 23.9267C46.4198 23.5317 46.2918 23.1506 46.0931 22.8056ZM11.0887 13.5262C11.0909 13.5169 11.0967 13.5088 11.1047 13.5036C11.1127 13.4984 11.1224 13.4964 11.1318 13.4981C12.8765 13.8922 14.5229 14.6367 15.9712 15.6863C15.3118 17.8435 14.9843 20.0886 15 22.3444C15 25.8581 15.7068 28.7194 16.7081 31.0219C15.2847 29.5972 14.053 27.9931 13.0443 26.25C9.66558 20.3663 10.3687 15.75 11.0887 13.5262ZM11.6512 32.9044C6.65058 29.9194 5.02871 26.2594 4.49996 24.3187C5.87962 23.9791 7.31126 23.9046 8.71871 24.0994C9.18858 25.358 9.76244 26.5753 10.4343 27.7388C12.0841 30.583 14.2454 33.0977 16.8093 35.1562C14.9963 34.635 13.2596 33.8779 11.6437 32.9044H11.6512ZM24 35.7C22.2506 34.3987 18 30.4069 18 22.3444C18 14.3812 22.1962 10.3575 24 9C25.8037 10.3612 30 14.385 30 22.3481C30 30.4069 25.7493 34.3987 24 35.7ZM32.0287 15.6863C33.4772 14.6373 35.1236 13.8935 36.8681 13.5C36.8775 13.4983 36.8872 13.5003 36.8952 13.5055C36.9033 13.5107 36.909 13.5188 36.9112 13.5281C37.6312 15.75 38.3343 20.3663 34.9556 26.25C33.9478 27.9954 32.7161 29.6015 31.2918 31.0275C32.2931 28.7287 33 25.8637 33 22.35C33.0162 20.0923 32.6887 17.8453 32.0287 15.6863ZM43.5 24.3225C42.9806 26.2444 41.3625 29.9119 36.3581 32.9044C34.7421 33.8772 33.0054 34.6337 31.1925 35.1544C33.7564 33.0959 35.9177 30.5811 37.5675 27.7369C38.2393 26.5735 38.8132 25.3561 39.2831 24.0975C40.6901 23.9036 42.1212 23.9793 43.5 24.3206V24.3225Z" />
</svg>
