<svg width="48" height="48" viewBox="0 0 48 48" fill="currentColor" xmlns="http://www.w3.org/2000/svg">
<path d="M39.0113 34.5H28.5C28.1022 34.5 27.7207 34.658 27.4394 34.9393C27.1581 35.2206 27 35.6022 27 36V38.25C27 40.0415 27.7117 41.7595 28.9784 43.0263C30.2452 44.293 31.9633 45.0047 33.7547 45.0047C35.5462 45.0047 37.2643 44.293 38.531 43.0263C39.7978 41.7595 40.5094 40.0415 40.5094 38.25V36C40.5094 35.6025 40.3516 35.2213 40.0707 34.94C39.7898 34.6587 39.4088 34.5005 39.0113 34.5ZM37.5113 38.25C37.5113 39.2446 37.1162 40.1984 36.4129 40.9016C35.7097 41.6049 34.7559 42 33.7613 42C32.7667 42 31.8129 41.6049 31.1096 40.9016C30.4064 40.1984 30.0113 39.2446 30.0113 38.25V37.5H37.5113V38.25ZM19.5 30H9.00004C8.60222 30 8.22068 30.158 7.93938 30.4393C7.65808 30.7206 7.50004 31.1022 7.50004 31.5V33.75C7.50004 35.5402 8.2112 37.2571 9.47707 38.523C10.7429 39.7888 12.4598 40.5 14.25 40.5C16.0403 40.5 17.7571 39.7888 19.023 38.523C20.2889 37.2571 21 35.5402 21 33.75V31.5C21 31.1022 20.842 30.7206 20.5607 30.4393C20.2794 30.158 19.8979 30 19.5 30ZM18 33.75C18 34.7446 17.605 35.6984 16.9017 36.4016C16.1984 37.1049 15.2446 37.5 14.25 37.5C13.2555 37.5 12.3017 37.1049 11.5984 36.4016C10.8951 35.6984 10.5 34.7446 10.5 33.75V33H18V33.75ZM14.25 3C12.0675 3 9.95067 4.93312 8.28754 8.4375C5.67567 13.9462 4.80754 22.125 8.34192 26.4375C8.48285 26.6095 8.66026 26.748 8.86132 26.8431C9.06237 26.9381 9.28204 26.9872 9.50441 26.9869H18.9825C19.2049 26.9872 19.4246 26.9381 19.6256 26.8431C19.8267 26.748 20.0041 26.6095 20.145 26.4375C23.6794 22.125 22.8113 13.9406 20.1994 8.4375C18.5344 4.93312 16.4194 3 14.25 3ZM18.2157 24H10.2713C8.13379 20.6062 8.91941 14.1187 11.0007 9.72937C12.2138 7.16625 13.5319 6 14.25 6C14.9682 6 16.2788 7.16625 17.4938 9.72937C19.5675 14.1187 20.3532 20.6062 18.2157 24ZM29.0175 31.5H38.4957C38.718 31.5003 38.9377 31.4512 39.1388 31.3562C39.3398 31.2612 39.5172 31.1226 39.6582 30.9506C43.1925 26.6381 42.3244 18.4537 39.7125 12.9506C38.0494 9.43312 35.9325 7.5 33.75 7.5C31.5675 7.5 29.4582 9.43312 27.7932 12.9375C25.1813 18.4462 24.3132 26.625 27.8475 30.9375C27.9884 31.1124 28.1666 31.2537 28.369 31.351C28.5714 31.4483 28.793 31.4992 29.0175 31.5ZM30.5175 14.2294C31.7288 11.6662 33.0469 10.5 33.75 10.5C34.4532 10.5 35.7788 11.6662 36.9919 14.2294C39.0732 18.6187 39.8588 25.1044 37.7232 28.5H29.7844C27.6469 25.1062 28.4325 18.6187 30.5138 14.2294H30.5175Z" />
</svg>
