<svg width="24" height="24" viewBox="0 0 24 24" fill="none" xmlns="http://www.w3.org/2000/svg">
<path d="M8.46996 5.78122C8.40023 5.71156 8.34491 5.62884 8.30717 5.5378C8.26943 5.44675 8.25 5.34915 8.25 5.25059C8.25 5.15203 8.26943 5.05443 8.30717 4.96338C8.34491 4.87234 8.40023 4.78962 8.46996 4.71997L11.47 1.71997C11.5396 1.65023 11.6223 1.59491 11.7134 1.55717C11.8044 1.51943 11.902 1.5 12.0006 1.5C12.0992 1.5 12.1967 1.51943 12.2878 1.55717C12.3788 1.59491 12.4616 1.65023 12.5312 1.71997L15.5312 4.71997C15.6719 4.8607 15.751 5.05157 15.751 5.25059C15.751 5.44961 15.6719 5.64048 15.5312 5.78122C15.3905 5.92195 15.1996 6.00101 15.0006 6.00101C14.8016 6.00101 14.6107 5.92195 14.47 5.78122L12.7506 4.0609V9.00059C12.7506 9.1995 12.6716 9.39027 12.5309 9.53092C12.3903 9.67157 12.1995 9.75059 12.0006 9.75059C11.8017 9.75059 11.6109 9.67157 11.4703 9.53092C11.3296 9.39027 11.2506 9.1995 11.2506 9.00059V4.0609L9.53122 5.78122C9.46156 5.85095 9.37884 5.90627 9.2878 5.94401C9.19675 5.98175 9.09915 6.00118 9.00059 6.00118C8.90203 6.00118 8.80443 5.98175 8.71338 5.94401C8.62234 5.90627 8.53962 5.85095 8.46996 5.78122ZM14.47 18.22L12.7506 19.9403V15.0006C12.7506 14.8017 12.6716 14.6109 12.5309 14.4703C12.3903 14.3296 12.1995 14.2506 12.0006 14.2506C11.8017 14.2506 11.6109 14.3296 11.4703 14.4703C11.3296 14.6109 11.2506 14.8017 11.2506 15.0006V19.9403L9.53122 18.22C9.39048 18.0792 9.19961 18.0002 9.00059 18.0002C8.80157 18.0002 8.6107 18.0792 8.46996 18.22C8.32923 18.3607 8.25017 18.5516 8.25017 18.7506C8.25017 18.9496 8.32923 19.1405 8.46996 19.2812L11.47 22.2812C11.5396 22.3509 11.6223 22.4063 11.7134 22.444C11.8044 22.4818 11.902 22.5012 12.0006 22.5012C12.0992 22.5012 12.1967 22.4818 12.2878 22.444C12.3788 22.4063 12.4616 22.3509 12.5312 22.2812L15.5312 19.2812C15.6719 19.1405 15.751 18.9496 15.751 18.7506C15.751 18.5516 15.6719 18.3607 15.5312 18.22C15.3905 18.0792 15.1996 18.0002 15.0006 18.0002C14.8016 18.0002 14.6107 18.0792 14.47 18.22ZM22.2812 11.47L19.2812 8.46996C19.1405 8.32923 18.9496 8.25017 18.7506 8.25017C18.5516 8.25017 18.3607 8.32923 18.22 8.46996C18.0792 8.6107 18.0002 8.80157 18.0002 9.00059C18.0002 9.19961 18.0792 9.39048 18.22 9.53122L19.9403 11.2506H15.0006C14.8017 11.2506 14.6109 11.3296 14.4703 11.4703C14.3296 11.6109 14.2506 11.8017 14.2506 12.0006C14.2506 12.1995 14.3296 12.3903 14.4703 12.5309C14.6109 12.6716 14.8017 12.7506 15.0006 12.7506H19.9403L18.22 14.47C18.0792 14.6107 18.0002 14.8016 18.0002 15.0006C18.0002 15.1996 18.0792 15.3905 18.22 15.5312C18.3607 15.6719 18.5516 15.751 18.7506 15.751C18.9496 15.751 19.1405 15.6719 19.2812 15.5312L22.2812 12.5312C22.3509 12.4616 22.4063 12.3788 22.444 12.2878C22.4818 12.1967 22.5012 12.0992 22.5012 12.0006C22.5012 11.902 22.4818 11.8044 22.444 11.7134C22.4063 11.6223 22.3509 11.5396 22.2812 11.47ZM4.0609 12.7506H9.00059C9.1995 12.7506 9.39027 12.6716 9.53092 12.5309C9.67157 12.3903 9.75059 12.1995 9.75059 12.0006C9.75059 11.8017 9.67157 11.6109 9.53092 11.4703C9.39027 11.3296 9.1995 11.2506 9.00059 11.2506H4.0609L5.78122 9.53122C5.92195 9.39048 6.00101 9.19961 6.00101 9.00059C6.00101 8.80157 5.92195 8.6107 5.78122 8.46996C5.64048 8.32923 5.44961 8.25017 5.25059 8.25017C5.05157 8.25017 4.8607 8.32923 4.71997 8.46996L1.71997 11.47C1.65023 11.5396 1.59491 11.6223 1.55717 11.7134C1.51943 11.8044 1.5 11.902 1.5 12.0006C1.5 12.0992 1.51943 12.1967 1.55717 12.2878C1.59491 12.3788 1.65023 12.4616 1.71997 12.5312L4.71997 15.5312C4.8607 15.6719 5.05157 15.751 5.25059 15.751C5.44961 15.751 5.64048 15.6719 5.78122 15.5312C5.92195 15.3905 6.00101 15.1996 6.00101 15.0006C6.00101 14.8016 5.92195 14.6107 5.78122 14.47L4.0609 12.7506Z" fill="currentColor"/>
</svg>
