<svg width="48" height="48" viewBox="0 0 48 48" fill="currentColor" xmlns="http://www.w3.org/2000/svg">
    <g transform="rotate(180 24 24)">
        <path d="M42.0002 24.0001C42.0002 24.3979 41.8422 24.7795 41.5609 25.0608C41.2796 25.3421 40.898 25.5001 40.5002 25.5001H11.1208L22.0615 36.4389C22.2008 36.5782 22.3114 36.7437 22.3868 36.9258C22.4622 37.1078 22.501 37.303 22.501 37.5001C22.501 37.6972 22.4622 37.8924 22.3868 38.0744C22.3114 38.2565 22.2008 38.422 22.0615 38.5614C21.9221 38.7007 21.7566 38.8113 21.5745 38.8867C21.3925 38.9621 21.1973 39.0009 21.0002 39.0009C20.8031 39.0009 20.6079 38.9621 20.4259 38.8867C20.2438 38.8113 20.0783 38.7007 19.939 38.5614L6.43895 25.0614C6.29949 24.922 6.18885 24.7566 6.11336 24.5745C6.03788 24.3924 5.99902 24.1972 5.99902 24.0001C5.99902 23.803 6.03788 23.6078 6.11336 23.4257C6.18885 23.2436 6.29949 23.0782 6.43895 22.9389L19.939 9.43885C20.2204 9.15739 20.6022 8.99927 21.0002 8.99927C21.3982 8.99927 21.78 9.15739 22.0615 9.43885C22.3429 9.72031 22.501 10.1021 22.501 10.5001C22.501 10.8981 22.3429 11.2799 22.0615 11.5614L11.1208 22.5001H40.5002C40.898 22.5001 41.2796 22.6581 41.5609 22.9394C41.8422 23.2207 42.0002 23.6023 42.0002 24.0001Z" />
    </g>
</svg>
