<svg width="48" height="48" viewBox="0 0 48 48" fill="currentColor" xmlns="http://www.w3.org/2000/svg">
<g clip-path="url(#clip0_587_3029)">
<path d="M12 44.25C12 44.695 11.868 45.13 11.6208 45.5C11.3736 45.87 11.0222 46.1584 10.611 46.3287C10.1999 46.499 9.74751 46.5436 9.31105 46.4568C8.87459 46.3699 8.47368 46.1557 8.15901 45.841C7.84434 45.5263 7.63005 45.1254 7.54323 44.689C7.45642 44.2525 7.50097 43.8001 7.67127 43.389C7.84157 42.9778 8.12996 42.6264 8.49997 42.3792C8.86998 42.132 9.30499 42 9.75 42C10.3467 42 10.919 42.2371 11.341 42.659C11.7629 43.081 12 43.6533 12 44.25ZM15.75 36C15.305 36 14.87 36.132 14.5 36.3792C14.13 36.6264 13.8416 36.9778 13.6713 37.389C13.501 37.8001 13.4564 38.2525 13.5432 38.689C13.6301 39.1254 13.8443 39.5263 14.159 39.841C14.4737 40.1557 14.8746 40.3699 15.311 40.4568C15.7475 40.5436 16.1999 40.499 16.611 40.3287C17.0222 40.1584 17.3736 39.87 17.6208 39.5C17.868 39.13 18 38.695 18 38.25C18 37.6533 17.7629 37.081 17.341 36.659C16.919 36.2371 16.3467 36 15.75 36ZM3.75 36C3.30499 36 2.86998 36.132 2.49997 36.3792C2.12996 36.6264 1.84157 36.9778 1.67127 37.389C1.50097 37.8001 1.45642 38.2525 1.54323 38.689C1.63005 39.1254 1.84434 39.5263 2.15901 39.841C2.47368 40.1557 2.87459 40.3699 3.31105 40.4568C3.74751 40.5436 4.19991 40.499 4.61104 40.3287C5.02217 40.1584 5.37357 39.87 5.62081 39.5C5.86804 39.13 6 38.695 6 38.25C6 37.6533 5.76295 37.081 5.34099 36.659C4.91903 36.2371 4.34674 36 3.75 36ZM9.75 30C9.30499 30 8.86998 30.132 8.49997 30.3792C8.12996 30.6264 7.84157 30.9778 7.67127 31.389C7.50097 31.8001 7.45642 32.2525 7.54323 32.689C7.63005 33.1254 7.84434 33.5263 8.15901 33.841C8.47368 34.1557 8.87459 34.37 9.31105 34.4568C9.74751 34.5436 10.1999 34.499 10.611 34.3287C11.0222 34.1584 11.3736 33.87 11.6208 33.5C11.868 33.13 12 32.695 12 32.25C12 31.6533 11.7629 31.081 11.341 30.659C10.919 30.2371 10.3467 30 9.75 30ZM48 7.5C48 7.89783 47.842 8.27936 47.5607 8.56066C47.2794 8.84196 46.8978 9 46.5 9H41.1206L35.8988 14.2238L31.8375 37.9969C31.7461 38.54 31.5069 39.0475 31.1462 39.4637C30.7855 39.8799 30.3172 40.1888 29.7926 40.3565C29.268 40.5242 28.7073 40.5443 28.1721 40.4145C27.6368 40.2847 27.1476 40.01 26.7581 39.6206L8.38313 21.2456C7.99313 20.8558 7.71812 20.366 7.58831 19.8301C7.45849 19.2942 7.47889 18.7329 7.64726 18.2078C7.81564 17.6827 8.12547 17.2142 8.54273 16.8537C8.95999 16.4932 9.46854 16.2547 10.0125 16.1644L33.7762 12.1013L39.4388 6.43875C39.5782 6.2995 39.7436 6.18908 39.9257 6.1138C40.1078 6.03851 40.303 5.99985 40.5 6H46.5C46.8978 6 47.2794 6.15804 47.5607 6.43934C47.842 6.72065 48 7.10218 48 7.5ZM32.6644 15.3356L10.5 19.125L28.875 37.5L32.6644 15.3356Z" />
</g>
<defs>
<clipPath id="clip0_587_3029">
<rect width="24" height="24" fill="white" transform="scale(2)"/>
</clipPath>
</defs>
</svg>
