<svg width="48" height="48" viewBox="0 0 48 48" fill="currentColor" xmlns="http://www.w3.org/2000/svg">
<path d="M25.4999 34.5C28.4667 34.5 31.3668 33.6203 33.8335 31.972C36.3002 30.3238 38.2228 27.9811 39.3581 25.2402C40.4935 22.4993 40.7905 19.4834 40.2117 16.5736C39.6329 13.6639 38.2043 10.9912 36.1065 8.89339C34.0088 6.7956 31.336 5.36699 28.4263 4.78821C25.5166 4.20944 22.5006 4.50649 19.7597 5.6418C17.0188 6.77711 14.6761 8.6997 13.0279 11.1664C11.3797 13.6332 10.4999 16.5333 10.4999 19.5C10.5044 23.4769 12.0862 27.2896 14.8983 30.1017C17.7104 32.9137 21.5231 34.4955 25.4999 34.5ZM25.4999 7.49999C27.8733 7.49999 30.1934 8.20378 32.1668 9.52236C34.1402 10.8409 35.6782 12.7151 36.5865 14.9078C37.4947 17.1005 37.7324 19.5133 37.2694 21.8411C36.8063 24.1688 35.6635 26.307 33.9852 27.9853C32.307 29.6635 30.1688 30.8064 27.841 31.2694C25.5133 31.7324 23.1005 31.4948 20.9077 30.5865C18.715 29.6783 16.8409 28.1402 15.5223 26.1668C14.2037 24.1934 13.4999 21.8734 13.4999 19.5C13.5034 16.3185 14.7688 13.2682 17.0185 11.0185C19.2682 8.76886 22.3184 7.50347 25.4999 7.49999ZM40.0818 32.5312C40.2185 32.6734 40.3258 32.841 40.3976 33.0247C40.4694 33.2083 40.5043 33.4043 40.5003 33.6014C40.4963 33.7986 40.4535 33.993 40.3743 34.1735C40.2951 34.3541 40.181 34.5173 40.0387 34.6537C36.5087 38.0577 31.8921 40.1091 26.9999 40.4475V43.5H31.4999C31.8978 43.5 32.2793 43.658 32.5606 43.9393C32.8419 44.2206 32.9999 44.6022 32.9999 45C32.9999 45.3978 32.8419 45.7793 32.5606 46.0607C32.2793 46.342 31.8978 46.5 31.4999 46.5H19.4999C19.1021 46.5 18.7206 46.342 18.4393 46.0607C18.158 45.7793 17.9999 45.3978 17.9999 45C17.9999 44.6022 18.158 44.2206 18.4393 43.9393C18.7206 43.658 19.1021 43.5 19.4999 43.5H23.9999V40.4456C20.0216 40.1607 16.2066 38.7486 13.0015 36.3747C9.79628 34.0008 7.33344 30.7632 5.90109 27.0407C4.46874 23.3182 4.12612 19.2648 4.91331 15.3547C5.70051 11.4445 7.58496 7.83947 10.3462 4.96124C10.4817 4.81561 10.6449 4.69839 10.8262 4.61641C11.0074 4.53444 11.2032 4.48934 11.4021 4.48375C11.6009 4.47815 11.7989 4.51218 11.9845 4.58384C12.1701 4.6555 12.3396 4.76336 12.4831 4.90115C12.6266 5.03894 12.7413 5.20389 12.8204 5.38642C12.8996 5.56895 12.9416 5.7654 12.9441 5.96433C12.9466 6.16326 12.9095 6.3607 12.835 6.54516C12.7604 6.72961 12.6499 6.8974 12.5099 7.03874C9.2401 10.4353 7.4334 14.9791 7.47818 19.6936C7.52297 24.408 9.41567 28.9167 12.7494 32.2505C16.0832 35.5843 20.5919 37.477 25.3064 37.5218C30.0208 37.5665 34.5647 35.7598 37.9612 32.49C38.2479 32.2143 38.6324 32.0638 39.03 32.0715C39.4277 32.0792 39.806 32.2446 40.0818 32.5312Z" />
</svg>
