<svg width="48" height="48" viewBox="0 0 48 48" fill="currentColor" xmlns="http://www.w3.org/2000/svg">
<path d="M45 10.5V19.5C45 19.8978 44.842 20.2794 44.5607 20.5607C44.2794 20.842 43.8978 21 43.5 21H34.5C34.1022 21 33.7207 20.842 33.4394 20.5607C33.1581 20.2794 33 19.8978 33 19.5C33 19.1022 33.1581 18.7207 33.4394 18.4394C33.7207 18.1581 34.1022 18 34.5 18H39.6375L34.6519 13.4325L34.605 13.3875C32.5201 11.3034 29.8674 9.87988 26.9782 9.29467C24.089 8.70946 21.0913 8.98856 18.3598 10.0971C15.6283 11.2056 13.2839 13.0944 11.6196 15.5276C9.95535 17.9607 9.0449 20.8303 9.00201 23.7779C8.95912 26.7255 9.78571 29.6204 11.3785 32.1009C12.9713 34.5814 15.2597 36.5377 17.9578 37.7252C20.656 38.9127 23.6442 39.2789 26.5492 38.778C29.4542 38.2771 32.1473 36.9313 34.2919 34.9088C34.5811 34.6353 34.967 34.4878 35.3649 34.4989C35.7628 34.51 36.1399 34.6787 36.4135 34.9678C36.687 35.257 36.8344 35.643 36.8233 36.0408C36.8122 36.4387 36.6436 36.8159 36.3544 37.0894C33.0197 40.252 28.5959 42.0104 24 42H23.7525C20.8045 41.9596 17.9116 41.1958 15.328 39.7755C12.7443 38.3552 10.5491 36.3221 8.93525 33.8548C7.32139 31.3874 6.3383 28.5614 6.07239 25.6252C5.80648 22.6889 6.26588 19.7323 7.41022 17.0152C8.55456 14.2981 10.3488 11.9036 12.6352 10.0423C14.9217 8.18102 17.6303 6.90984 20.5231 6.34051C23.4159 5.77118 26.4042 5.92113 29.2255 6.77718C32.0467 7.63324 34.6145 9.16918 36.7031 11.25L42 16.0875V10.5C42 10.1022 42.1581 9.72067 42.4394 9.43936C42.7207 9.15806 43.1022 9.00002 43.5 9.00002C43.8978 9.00002 44.2794 9.15806 44.5607 9.43936C44.842 9.72067 45 10.1022 45 10.5Z" />
</svg>
