<svg width="48" height="48" viewBox="0 0 48 48" fill="currentColor" xmlns="http://www.w3.org/2000/svg">
<path d="M39 7.5H9C8.20435 7.5 7.44129 7.81607 6.87868 8.37868C6.31607 8.94129 6 9.70435 6 10.5V21C6 30.885 10.785 36.8756 14.7994 40.1606C19.1231 43.6969 23.4244 44.8988 23.6119 44.9475C23.8697 45.0176 24.1416 45.0176 24.3994 44.9475C24.5869 44.8988 28.8825 43.6969 33.2119 40.1606C37.215 36.8756 42 30.885 42 21V10.5C42 9.70435 41.6839 8.94129 41.1213 8.37868C40.5587 7.81607 39.7957 7.5 39 7.5ZM39 21C39 27.9506 36.4387 33.5925 31.3875 37.7663C29.1887 39.577 26.6879 40.986 24 41.9287C21.3473 41.0024 18.8774 39.6184 16.7025 37.8394C11.5913 33.6581 9 27.9937 9 21V10.5H39V21Z" />
</svg>
