<svg width="48" height="48" viewBox="0 0 48 48" fill="currentColor" xmlns="http://www.w3.org/2000/svg">
<path d="M40.5 19.5C40.5 19.8978 40.342 20.2794 40.0607 20.5607C39.7794 20.842 39.3978 21 39 21C38.6022 21 38.2206 20.842 37.9393 20.5607C37.658 20.2794 37.5 19.8978 37.5 19.5C37.5 15.9196 36.0777 12.4858 33.5459 9.95406C31.0142 7.42232 27.5804 6 24 6C20.4196 6 16.9858 7.42232 14.4541 9.95406C11.9223 12.4858 10.5 15.9196 10.5 19.5C10.5 24.5063 12.0994 26.0475 13.7944 27.6825C15.4144 29.25 17.25 31.0144 17.25 35.25C17.25 37.0402 17.9612 38.7571 19.227 40.023C20.4929 41.2888 22.2098 42 24 42C25.92 42 27.4594 41.22 28.8431 39.5456C28.9671 39.3895 29.1209 39.2596 29.2956 39.1635C29.4703 39.0675 29.6625 39.0073 29.8607 38.9863C30.059 38.9654 30.2595 38.9842 30.4504 39.0417C30.6413 39.0992 30.8188 39.1941 30.9726 39.321C31.1264 39.4479 31.2534 39.6041 31.3461 39.7806C31.4388 39.9571 31.4954 40.1504 31.5125 40.349C31.5297 40.5476 31.5071 40.7477 31.446 40.9375C31.3849 41.1273 31.2866 41.303 31.1569 41.4544C29.2144 43.8075 26.8125 45 24 45C21.4151 44.997 18.9368 43.9688 17.109 42.141C15.2812 40.3132 14.253 37.8349 14.25 35.25C14.25 32.2894 13.185 31.2619 11.7112 29.8425C9.83625 28.0312 7.5 25.7812 7.5 19.5C7.5 15.1239 9.23839 10.9271 12.3327 7.83274C15.4271 4.73839 19.6239 3 24 3C28.3761 3 32.5729 4.73839 35.6673 7.83274C38.7616 10.9271 40.5 15.1239 40.5 19.5ZM33.3506 30.2025C33.18 30.1036 32.9916 30.0393 32.7961 30.0133C32.6007 29.9873 32.402 30.0001 32.2115 30.0509C32.021 30.1018 31.8423 30.1897 31.6858 30.3097C31.5293 30.4296 31.398 30.5792 31.2994 30.75C31.1343 31.0361 30.8795 31.2598 30.5744 31.3863C30.2692 31.5127 29.9309 31.535 29.6118 31.4495C29.2928 31.364 29.0108 31.1756 28.8098 30.9135C28.6088 30.6514 28.4999 30.3303 28.5 30C28.5 28.2506 29.4037 27.045 30.45 25.65C31.6444 24.0563 33 22.2506 33 19.5C33 17.1131 32.0518 14.8239 30.364 13.136C28.6761 11.4482 26.3869 10.5 24 10.5C21.6131 10.5 19.3239 11.4482 17.636 13.136C15.9482 14.8239 15 17.1131 15 19.5C15 19.8978 15.158 20.2794 15.4393 20.5607C15.7206 20.842 16.1022 21 16.5 21C16.8978 21 17.2794 20.842 17.5607 20.5607C17.842 20.2794 18 19.8978 18 19.5C18 17.9087 18.6321 16.3826 19.7574 15.2574C20.8826 14.1321 22.4087 13.5 24 13.5C25.5913 13.5 27.1174 14.1321 28.2426 15.2574C29.3679 16.3826 30 17.9087 30 19.5C30 21.2494 29.0963 22.455 28.05 23.85C26.8556 25.4437 25.5 27.2494 25.5 30C25.5003 30.9903 25.8273 31.9529 26.4303 32.7385C27.0333 33.5241 27.8786 34.0888 28.8352 34.3451C29.7918 34.6015 30.8062 34.5351 31.7212 34.1563C32.6362 33.7775 33.4008 33.1075 33.8962 32.25C34.095 31.906 34.1491 31.4973 34.0468 31.1134C33.9445 30.7296 33.6942 30.402 33.3506 30.2025Z" />
</svg>
