<svg width="48" height="48" viewBox="0 0 48 48" fill="currentColor" xmlns="http://www.w3.org/2000/svg">
<path d="M24.0001 15.0001C22.2201 15.0001 20.48 15.5279 19 16.5169C17.5199 17.5058 16.3664 18.9114 15.6852 20.5559C15.004 22.2005 14.8258 24.0101 15.173 25.7559C15.5203 27.5017 16.3775 29.1054 17.6361 30.364C18.8948 31.6227 20.4984 32.4799 22.2443 32.8272C23.9901 33.1744 25.7997 32.9962 27.4442 32.315C29.0888 31.6338 30.4944 30.4803 31.4833 29.0002C32.4722 27.5202 33.0001 25.7801 33.0001 24.0001C32.9976 21.6139 32.0486 19.3262 30.3613 17.6389C28.674 15.9516 26.3863 15.0026 24.0001 15.0001ZM24.0001 30.0001C22.8134 30.0001 21.6534 29.6482 20.6667 28.9889C19.68 28.3296 18.9109 27.3925 18.4568 26.2962C18.0027 25.1998 17.8839 23.9934 18.1154 22.8295C18.3469 21.6657 18.9183 20.5966 19.7574 19.7574C20.5966 18.9183 21.6657 18.3469 22.8295 18.1154C23.9934 17.8839 25.1998 18.0027 26.2962 18.4568C27.3925 18.9109 28.3296 19.68 28.9889 20.6667C29.6482 21.6534 30.0001 22.8134 30.0001 24.0001C30.0001 25.5914 29.3679 27.1175 28.2427 28.2427C27.1175 29.3679 25.5914 30.0001 24.0001 30.0001ZM40.5001 24.4051C40.5076 24.1351 40.5076 23.8651 40.5001 23.5951L43.2976 20.1001C43.4443 19.9166 43.5458 19.7012 43.594 19.4713C43.6422 19.2413 43.6357 19.0033 43.5751 18.7763C43.1165 17.0525 42.4305 15.3973 41.5351 13.8545C41.4179 13.6526 41.2551 13.4808 41.0598 13.3529C40.8645 13.225 40.642 13.1444 40.4101 13.1176L35.9626 12.6226C35.7776 12.4276 35.5901 12.2401 35.4001 12.0601L34.8751 7.60134C34.8481 7.36923 34.7672 7.14665 34.639 6.95133C34.5107 6.75601 34.3386 6.59336 34.1363 6.47634C32.5929 5.58261 30.9379 4.89727 29.2145 4.43821C28.9874 4.37783 28.7492 4.37165 28.5193 4.42018C28.2894 4.46871 28.0741 4.57058 27.8907 4.71759L24.4051 7.50009C24.1351 7.50009 23.8651 7.50009 23.5951 7.50009L20.1001 4.70821C19.9166 4.56153 19.7012 4.45999 19.4713 4.41179C19.2413 4.36359 19.0033 4.37007 18.7763 4.43071C17.0527 4.89014 15.3977 5.57612 13.8545 6.47071C13.6526 6.58795 13.4808 6.7507 13.3529 6.946C13.225 7.14131 13.1444 7.36378 13.1176 7.59571L12.6226 12.0507C12.4276 12.237 12.2401 12.4245 12.0601 12.6132L7.60134 13.1251C7.36923 13.1521 7.14665 13.2329 6.95133 13.3612C6.75601 13.4895 6.59336 13.6616 6.47634 13.8638C5.58261 15.4073 4.89727 17.0623 4.43821 18.7857C4.37783 19.0128 4.37165 19.2509 4.42018 19.4809C4.46871 19.7108 4.57058 19.9261 4.71759 20.1095L7.50009 23.5951C7.50009 23.8651 7.50009 24.1351 7.50009 24.4051L4.70821 27.9001C4.56153 28.0836 4.45999 28.299 4.41179 28.5289C4.36359 28.7588 4.37007 28.9969 4.43071 29.2238C4.88932 30.9477 5.57534 32.6029 6.47071 34.1457C6.58795 34.3476 6.7507 34.5194 6.946 34.6473C7.14131 34.7752 7.36378 34.8558 7.59571 34.8826L12.0432 35.3776C12.2295 35.5726 12.417 35.7601 12.6057 35.9401L13.1251 40.3988C13.1521 40.6309 13.2329 40.8535 13.3612 41.0488C13.4895 41.2442 13.6616 41.4068 13.8638 41.5238C15.4073 42.4176 17.0623 43.1029 18.7857 43.562C19.0128 43.6223 19.2509 43.6285 19.4809 43.58C19.7108 43.5315 19.9261 43.4296 20.1095 43.2826L23.5951 40.5001C23.8651 40.5076 24.1351 40.5076 24.4051 40.5001L27.9001 43.2976C28.0836 43.4443 28.299 43.5458 28.5289 43.594C28.7588 43.6422 28.9969 43.6357 29.2238 43.5751C30.9477 43.1165 32.6029 42.4305 34.1457 41.5351C34.3476 41.4179 34.5194 41.2551 34.6473 41.0598C34.7752 40.8645 34.8558 40.642 34.8826 40.4101L35.3776 35.9626C35.5726 35.7776 35.7601 35.5901 35.9401 35.4001L40.3988 34.8751C40.6309 34.8481 40.8535 34.7672 41.0488 34.639C41.2442 34.5107 41.4068 34.3386 41.5238 34.1363C42.4176 32.5929 43.1029 30.9379 43.562 29.2145C43.6223 28.9874 43.6285 28.7492 43.58 28.5193C43.5315 28.2894 43.4296 28.0741 43.2826 27.8907L40.5001 24.4051ZM37.4813 23.1863C37.5132 23.7284 37.5132 24.2718 37.4813 24.8138C37.459 25.1849 37.5753 25.5511 37.8076 25.8413L40.4682 29.1657C40.1629 30.136 39.772 31.0772 39.3001 31.9782L35.0626 32.4582C34.6936 32.4992 34.3528 32.6756 34.1063 32.9532C33.7454 33.3591 33.361 33.7435 32.9551 34.1045C32.6774 34.351 32.5011 34.6917 32.4601 35.0607L31.9895 39.2945C31.0885 39.7666 30.1473 40.1575 29.177 40.4626L25.8507 37.802C25.5845 37.5893 25.2539 37.4736 24.9132 37.4738H24.8232C24.2812 37.5057 23.7377 37.5057 23.1957 37.4738C22.8246 37.4515 22.4584 37.5678 22.1682 37.8001L18.8345 40.4626C17.8642 40.1573 16.923 39.7664 16.022 39.2945L15.542 35.0626C15.501 34.6936 15.3246 34.3528 15.047 34.1063C14.641 33.7454 14.2566 33.361 13.8957 32.9551C13.6492 32.6774 13.3085 32.5011 12.9395 32.4601L8.70571 31.9876C8.23357 31.0866 7.84265 30.1454 7.53759 29.1751L10.1982 25.8488C10.4305 25.5586 10.5468 25.1924 10.5245 24.8213C10.4926 24.2793 10.4926 23.7359 10.5245 23.1938C10.5468 22.8227 10.4305 22.4566 10.1982 22.1663L7.53759 18.8345C7.84288 17.8642 8.2338 16.923 8.70571 16.022L12.9376 15.542C13.3066 15.501 13.6473 15.3246 13.8938 15.047C14.2548 14.641 14.6392 14.2566 15.0451 13.8957C15.3239 13.649 15.501 13.3075 15.542 12.9376L16.0126 8.70571C16.9135 8.23357 17.8548 7.84265 18.8251 7.53759L22.1513 10.1982C22.4416 10.4305 22.8077 10.5468 23.1788 10.5245C23.7209 10.4926 24.2643 10.4926 24.8063 10.5245C25.1774 10.5468 25.5436 10.4305 25.8338 10.1982L29.1657 7.53759C30.136 7.84288 31.0772 8.2338 31.9782 8.70571L32.4582 12.9376C32.4992 13.3066 32.6756 13.6473 32.9532 13.8938C33.3591 14.2548 33.7435 14.6392 34.1045 15.0451C34.351 15.3228 34.6917 15.4991 35.0607 15.5401L39.2945 16.0107C39.7666 16.9117 40.1575 17.8529 40.4626 18.8232L37.802 22.1495C37.5674 22.4421 37.451 22.8121 37.4757 23.1863H37.4813Z" />
</svg>
