<svg width="48" height="48" viewBox="0 0 48 48" fill="currentColor" xmlns="http://www.w3.org/2000/svg">
<path d="M44.5611 19.9407L29.5611 4.94066C29.3515 4.73076 29.0843 4.58775 28.7933 4.52971C28.5024 4.47168 28.2007 4.50123 27.9266 4.61462C27.6524 4.72802 27.418 4.92017 27.2531 5.16677C27.0881 5.41337 27 5.70335 26.9999 6.00004V13.5657C22.1361 13.9819 16.7643 16.3632 12.3449 20.1113C7.02364 24.6263 3.71051 30.4444 3.01489 36.4932C2.96053 36.9634 3.05588 37.4389 3.28737 37.8518C3.51886 38.2647 3.8747 38.5941 4.30424 38.7931C4.73379 38.9921 5.21515 39.0505 5.67983 38.9601C6.1445 38.8697 6.56882 38.635 6.89239 38.2894C8.95489 36.0938 16.2936 29.1507 26.9999 28.5394V36C27 36.2967 27.0881 36.5867 27.2531 36.8333C27.418 37.0799 27.6524 37.2721 27.9266 37.3855C28.2007 37.4988 28.5024 37.5284 28.7933 37.4704C29.0843 37.4123 29.3515 37.2693 29.5611 37.0594L44.5611 22.0594C44.8417 21.7782 44.9992 21.3972 44.9992 21C44.9992 20.6028 44.8417 20.2219 44.5611 19.9407ZM29.9999 32.3794V27C29.9999 26.6022 29.8418 26.2207 29.5605 25.9394C29.2792 25.6581 28.8977 25.5 28.4999 25.5C23.2349 25.5 18.1068 26.8744 13.258 29.5875C10.7885 30.9755 8.48765 32.644 6.40114 34.56C7.48864 30.09 10.2299 25.8394 14.2855 22.3988C18.6393 18.7069 23.953 16.5 28.4999 16.5C28.8977 16.5 29.2792 16.342 29.5605 16.0607C29.8418 15.7794 29.9999 15.3979 29.9999 15V9.62254L41.3793 21L29.9999 32.3794Z" />
</svg>
