<svg width="48" height="48" viewBox="0 0 48 48" fill="currentColor" xmlns="http://www.w3.org/2000/svg">
<path d="M34.6069 24.0001L39.8025 18.8026C40.5188 18.1108 41.0902 17.2832 41.4833 16.3682C41.8763 15.4531 42.0832 14.469 42.0919 13.4731C42.1005 12.4773 41.9108 11.4897 41.5337 10.568C41.1566 9.64624 40.5997 8.80885 39.8955 8.10466C39.1913 7.40046 38.3539 6.84356 37.4322 6.46646C36.5104 6.08935 35.5228 5.89959 34.527 5.90824C33.5311 5.9169 32.547 6.12379 31.632 6.51686C30.7169 6.90993 29.8894 7.48129 29.1975 8.19762L24 13.3932L18.8025 8.19762C18.1106 7.48129 17.2831 6.90993 16.368 6.51686C15.453 6.12379 14.4689 5.9169 13.473 5.90824C12.4772 5.89959 11.4896 6.08935 10.5678 6.46646C9.64612 6.84356 8.80873 7.40046 8.10454 8.10466C7.40034 8.80885 6.84344 9.64624 6.46634 10.568C6.08923 11.4897 5.89947 12.4773 5.90812 13.4731C5.91677 14.469 6.12367 15.4531 6.51674 16.3682C6.90981 17.2832 7.48117 18.1108 8.1975 18.8026L13.3931 24.0001L8.1975 29.1976C7.48117 29.8895 6.90981 30.7171 6.51674 31.6321C6.12367 32.5471 5.91677 33.5313 5.90812 34.5271C5.89947 35.523 6.08923 36.5106 6.46634 37.4323C6.84344 38.354 7.40034 39.1914 8.10454 39.8956C8.80873 40.5998 9.64612 41.1567 10.5678 41.5338C11.4896 41.9109 12.4772 42.1007 13.473 42.092C14.4689 42.0834 15.453 41.8764 16.368 41.4834C17.2831 41.0903 18.1106 40.519 18.8025 39.8026L24 34.607L29.1975 39.8026C29.8894 40.519 30.7169 41.0903 31.632 41.4834C32.547 41.8764 33.5311 42.0834 34.527 42.092C35.5228 42.1007 36.5104 41.9109 37.4322 41.5338C38.3539 41.1567 39.1913 40.5998 39.8955 39.8956C40.5997 39.1914 41.1566 38.354 41.5337 37.4323C41.9108 36.5106 42.1005 35.523 42.0919 34.5271C42.0832 33.5313 41.8763 32.5471 41.4833 31.6321C41.0902 30.7171 40.5188 29.8895 39.8025 29.1976L34.6069 24.0001ZM31.3125 10.3126C31.7311 9.89403 32.228 9.56199 32.7749 9.33545C33.3219 9.10891 33.908 8.99232 34.5 8.99232C35.092 8.99232 35.6782 9.10891 36.2251 9.33545C36.772 9.56199 37.2689 9.89403 37.6875 10.3126C38.1061 10.7312 38.4381 11.2281 38.6647 11.7751C38.8912 12.322 39.0078 12.9081 39.0078 13.5001C39.0078 14.0921 38.8912 14.6783 38.6647 15.2252C38.4381 15.7721 38.1061 16.269 37.6875 16.6876L32.49 21.8851L26.1206 15.5157L31.3125 10.3126ZM30.3581 24.0001L24 30.3639L17.6362 24.0001L24 17.6364L30.3581 24.0001ZM10.3125 16.6876C9.89391 16.269 9.56187 15.7721 9.33533 15.2252C9.10879 14.6783 8.99219 14.0921 8.99219 13.5001C8.99219 12.9081 9.10879 12.322 9.33533 11.7751C9.56187 11.2281 9.89391 10.7312 10.3125 10.3126C10.7311 9.89403 11.228 9.56199 11.7749 9.33545C12.3218 9.10891 12.908 8.99232 13.5 8.99232C14.092 8.99232 14.6781 9.10891 15.2251 9.33545C15.772 9.56199 16.2689 9.89403 16.6875 10.3126L21.885 15.5101L15.5156 21.8795L10.3125 16.6876ZM16.6875 37.6876C16.2689 38.1062 15.772 38.4383 15.2251 38.6648C14.6781 38.8913 14.092 39.0079 13.5 39.0079C12.908 39.0079 12.3218 38.8913 11.7749 38.6648C11.228 38.4383 10.7311 38.1062 10.3125 37.6876C9.89391 37.269 9.56187 36.7721 9.33533 36.2252C9.10879 35.6783 8.99219 35.0921 8.99219 34.5001C8.99219 33.9081 9.10879 33.322 9.33533 32.7751C9.56187 32.2281 9.89391 31.7312 10.3125 31.3126L15.51 26.1151L21.8738 32.4789L16.6875 37.6876ZM37.6875 37.6876C37.2694 38.1071 36.7727 38.44 36.2257 38.6671C35.6787 38.8943 35.0923 39.0112 34.5 39.0112C33.9077 39.0112 33.3213 38.8943 32.7743 38.6671C32.2273 38.44 31.7306 38.1071 31.3125 37.6876L26.115 32.4901L32.4788 26.1264L37.6875 31.3126C38.107 31.7307 38.4399 32.2275 38.667 32.7744C38.8941 33.3214 39.0111 33.9079 39.0111 34.5001C39.0111 35.0924 38.8941 35.6788 38.667 36.2258C38.4399 36.7728 38.107 37.2696 37.6875 37.6876ZM21.75 24.0001C21.75 23.5551 21.882 23.1201 22.1292 22.7501C22.3764 22.3801 22.7278 22.0917 23.139 21.9214C23.5501 21.7511 24.0025 21.7065 24.439 21.7934C24.8754 21.8802 25.2763 22.0945 25.591 22.4091C25.9057 22.7238 26.12 23.1247 26.2068 23.5612C26.2936 23.9976 26.249 24.45 26.0787 24.8612C25.9084 25.2723 25.62 25.6237 25.25 25.8709C24.88 26.1182 24.445 26.2501 24 26.2501C23.4033 26.2501 22.831 26.0131 22.409 25.5911C21.9871 25.1692 21.75 24.5969 21.75 24.0001Z" />
</svg>
