<svg width="48" height="48" viewBox="0 0 48 48" fill="currentColor" xmlns="http://www.w3.org/2000/svg">
<path d="M32.25 13.5C31.4737 13.4997 30.6987 13.5624 29.9325 13.6875C29.66 10.8719 28.5091 8.21331 26.6427 6.08775C24.7762 3.96218 22.2886 2.47729 19.5319 1.84314C19.2843 1.78626 19.0264 1.79319 18.7822 1.86328C18.538 1.93336 18.3157 2.06431 18.1359 2.24384C17.9562 2.42337 17.8251 2.6456 17.7547 2.8897C17.6844 3.13379 17.6772 3.39175 17.7338 3.63939C18.0871 5.17851 18.089 6.77746 17.7394 8.31742C17.3898 9.85738 16.6976 11.2988 15.7143 12.5344C14.731 13.7701 13.4819 14.7683 12.0598 15.4548C10.6377 16.1414 9.07919 16.4986 7.50004 16.5C6.70567 16.5001 5.9138 16.4108 5.13941 16.2338C4.89165 16.1768 4.63346 16.1837 4.3891 16.2538C4.14473 16.324 3.92221 16.4551 3.74244 16.6349C3.56267 16.8147 3.43154 17.0372 3.36137 17.2816C3.2912 17.5259 3.28429 17.7841 3.34129 18.0319C3.74426 19.7695 4.48656 21.4104 5.52556 22.8603C6.56455 24.3102 7.87977 25.5405 9.39566 26.4806C8.32954 27.9331 7.68671 29.6525 7.53852 31.4481C7.39033 33.2437 7.74257 35.0452 8.55615 36.6528C9.36974 38.2603 10.6128 39.611 12.1475 40.5549C13.6822 41.4988 15.4483 41.999 17.25 42H32.25C36.0294 42 39.6539 40.4987 42.3263 37.8263C44.9987 35.1539 46.5 31.5293 46.5 27.75C46.5 23.9707 44.9987 20.3461 42.3263 17.6737C39.6539 15.0013 36.0294 13.5 32.25 13.5ZM7.00691 19.5C7.17004 19.5 7.33504 19.5 7.50004 19.5C11.0792 19.496 14.5107 18.0724 17.0416 15.5416C19.5725 13.0107 20.9961 9.57922 21 6.00001C21 5.83314 21 5.66626 21 5.49939C22.7273 6.3077 24.2 7.57409 25.2578 9.16087C26.3157 10.7476 26.9182 12.5941 27 14.4994C25.1679 15.2269 23.506 16.3253 22.1185 17.7257C20.7311 19.1261 19.6481 20.7981 18.9375 22.6369C17.6693 22.4174 16.3703 22.4513 15.1152 22.7364C13.8601 23.0215 12.6739 23.5523 11.625 24.2981C9.60763 23.2398 7.98736 21.5564 7.00691 19.5ZM32.25 39H17.25C16.3268 38.9983 15.4138 38.8073 14.5674 38.4386C13.7209 38.07 12.9591 37.5317 12.329 36.857C11.6989 36.1822 11.214 35.3854 10.9041 34.5157C10.5942 33.6461 10.466 32.7221 10.5274 31.801C10.5888 30.8798 10.8386 29.981 11.2612 29.1602C11.6838 28.3394 12.2702 27.614 12.9843 27.0289C13.6984 26.4438 14.525 26.0114 15.4128 25.7584C16.3007 25.5054 17.231 25.4373 18.1463 25.5581C18.0769 26.0025 18.0282 26.4563 18.0019 26.9138C17.9906 27.1107 18.0182 27.308 18.0831 27.4944C18.148 27.6807 18.249 27.8524 18.3803 27.9997C18.5115 28.147 18.6706 28.267 18.8482 28.3528C19.0259 28.4387 19.2187 28.4887 19.4157 28.5C19.6126 28.5113 19.8099 28.4838 19.9963 28.4188C20.1826 28.3539 20.3543 28.2529 20.5016 28.1217C20.6489 27.9904 20.7689 27.8314 20.8547 27.6537C20.9406 27.4761 20.9906 27.2832 21.0019 27.0863C21.044 26.3381 21.1621 25.5961 21.3544 24.8719C21.3544 24.8419 21.3713 24.8119 21.3769 24.7819C21.9282 22.7558 23.035 20.9243 24.5723 19.494C26.1096 18.0638 28.0161 17.0918 30.0766 16.6879C32.137 16.2839 34.2694 16.4641 36.2329 17.208C38.1964 17.952 39.9129 19.23 41.1884 20.8979C42.4639 22.5658 43.2477 24.5571 43.4512 26.6469C43.6548 28.7368 43.2701 30.8419 42.3404 32.7246C41.4108 34.6073 39.9733 36.1926 38.1903 37.3015C36.4073 38.4104 34.3498 38.9987 32.25 39Z" />
</svg>
