<svg width="48" height="48" viewBox="0 0 48 48" fill="currentColor" xmlns="http://www.w3.org/2000/svg">
<path d="M7.5 24C7.5 23.6022 7.65804 23.2206 7.93934 22.9393C8.22064 22.658 8.60218 22.5 9 22.5H22.5C22.8978 22.5 23.2794 22.658 23.5607 22.9393C23.842 23.2206 24 23.6022 24 24C24 24.3978 23.842 24.7793 23.5607 25.0607C23.2794 25.342 22.8978 25.5 22.5 25.5H9C8.60218 25.5 8.22064 25.342 7.93934 25.0607C7.65804 24.7793 7.5 24.3978 7.5 24ZM9 13.5H19.5C19.8978 13.5 20.2794 13.342 20.5607 13.0606C20.842 12.7793 21 12.3978 21 12C21 11.6022 20.842 11.2206 20.5607 10.9393C20.2794 10.658 19.8978 10.5 19.5 10.5H9C8.60218 10.5 8.22064 10.658 7.93934 10.9393C7.65804 11.2206 7.5 11.6022 7.5 12C7.5 12.3978 7.65804 12.7793 7.93934 13.0606C8.22064 13.342 8.60218 13.5 9 13.5ZM34.5 34.5H9C8.60218 34.5 8.22064 34.658 7.93934 34.9393C7.65804 35.2206 7.5 35.6022 7.5 36C7.5 36.3978 7.65804 36.7793 7.93934 37.0606C8.22064 37.342 8.60218 37.5 9 37.5H34.5C34.8978 37.5 35.2794 37.342 35.5607 37.0606C35.842 36.7793 36 36.3978 36 36C36 35.6022 35.842 35.2206 35.5607 34.9393C35.2794 34.658 34.8978 34.5 34.5 34.5ZM43.0612 15.4387L35.5613 7.93874C35.4219 7.79928 35.2565 7.68864 35.0744 7.61315C34.8923 7.53766 34.6971 7.49881 34.5 7.49881C34.3029 7.49881 34.1077 7.53766 33.9256 7.61315C33.7435 7.68864 33.5781 7.79928 33.4387 7.93874L25.9387 15.4387C25.6573 15.7202 25.4992 16.1019 25.4992 16.5C25.4992 16.898 25.6573 17.2798 25.9387 17.5612C26.2202 17.8427 26.602 18.0008 27 18.0008C27.398 18.0008 27.7798 17.8427 28.0613 17.5612L33 12.6206V27C33 27.3978 33.158 27.7793 33.4393 28.0607C33.7206 28.342 34.1022 28.5 34.5 28.5C34.8978 28.5 35.2794 28.342 35.5607 28.0607C35.842 27.7793 36 27.3978 36 27V12.6206L40.9388 17.5612C41.0781 17.7006 41.2436 17.8112 41.4257 17.8866C41.6077 17.962 41.8029 18.0008 42 18.0008C42.1971 18.0008 42.3923 17.962 42.5743 17.8866C42.7564 17.8112 42.9219 17.7006 43.0612 17.5612C43.2006 17.4219 43.3112 17.2564 43.3866 17.0743C43.462 16.8922 43.5008 16.6971 43.5008 16.5C43.5008 16.3029 43.462 16.1077 43.3866 15.9256C43.3112 15.7436 43.2006 15.5781 43.0612 15.4387Z" />
</svg>
