<svg width="48" height="48" viewBox="0 0 48 48" fill="currentColor" xmlns="http://www.w3.org/2000/svg">
<path d="M24 24C24 24.3978 23.842 24.7794 23.5607 25.0607C23.2794 25.342 22.8978 25.5 22.5 25.5H9C8.60218 25.5 8.22064 25.342 7.93934 25.0607C7.65804 24.7794 7.5 24.3978 7.5 24C7.5 23.6022 7.65804 23.2206 7.93934 22.9393C8.22064 22.658 8.60218 22.5 9 22.5H22.5C22.8978 22.5 23.2794 22.658 23.5607 22.9393C23.842 23.2206 24 23.6022 24 24ZM9 13.5H34.5C34.8978 13.5 35.2794 13.342 35.5607 13.0607C35.842 12.7794 36 12.3978 36 12C36 11.6022 35.842 11.2206 35.5607 10.9393C35.2794 10.658 34.8978 10.5 34.5 10.5H9C8.60218 10.5 8.22064 10.658 7.93934 10.9393C7.65804 11.2206 7.5 11.6022 7.5 12C7.5 12.3978 7.65804 12.7794 7.93934 13.0607C8.22064 13.342 8.60218 13.5 9 13.5ZM19.5 34.5H9C8.60218 34.5 8.22064 34.658 7.93934 34.9393C7.65804 35.2206 7.5 35.6022 7.5 36C7.5 36.3978 7.65804 36.7794 7.93934 37.0607C8.22064 37.342 8.60218 37.5 9 37.5H19.5C19.8978 37.5 20.2794 37.342 20.5607 37.0607C20.842 36.7794 21 36.3978 21 36C21 35.6022 20.842 35.2206 20.5607 34.9393C20.2794 34.658 19.8978 34.5 19.5 34.5ZM43.0612 30.4387C42.9219 30.2993 42.7565 30.1886 42.5744 30.1132C42.3923 30.0377 42.1971 29.9988 42 29.9988C41.8029 29.9988 41.6077 30.0377 41.4256 30.1132C41.2435 30.1886 41.0781 30.2993 40.9388 30.4387L36 35.3794V21C36 20.6022 35.842 20.2206 35.5607 19.9393C35.2794 19.658 34.8978 19.5 34.5 19.5C34.1022 19.5 33.7206 19.658 33.4393 19.9393C33.158 20.2206 33 20.6022 33 21V35.3794L28.0613 30.4387C27.7798 30.1573 27.398 29.9992 27 29.9992C26.602 29.9992 26.2202 30.1573 25.9387 30.4387C25.6573 30.7202 25.4992 31.102 25.4992 31.5C25.4992 31.898 25.6573 32.2798 25.9387 32.5613L33.4387 40.0613C33.5781 40.2007 33.7435 40.3114 33.9256 40.3868C34.1077 40.4623 34.3029 40.5012 34.5 40.5012C34.6971 40.5012 34.8923 40.4623 35.0744 40.3868C35.2565 40.3114 35.4219 40.2007 35.5613 40.0613L43.0612 32.5613C43.2007 32.4219 43.3114 32.2565 43.3868 32.0744C43.4623 31.8923 43.5012 31.6971 43.5012 31.5C43.5012 31.3029 43.4623 31.1077 43.3868 30.9256C43.3114 30.7435 43.2007 30.5781 43.0612 30.4387Z" />
</svg>
