<svg width="48" height="48" viewBox="0 0 48 48" fill="currentColor" xmlns="http://www.w3.org/2000/svg">
<path d="M45 24C45 24.3979 44.842 24.7794 44.5607 25.0607C44.2794 25.342 43.8978 25.5 43.5 25.5H38.4263L31.3425 39.6713C31.2178 39.9205 31.0261 40.13 30.789 40.2764C30.5519 40.4228 30.2787 40.5002 30 40.5H29.925C29.634 40.4856 29.3536 40.3868 29.1178 40.2157C28.8821 40.0446 28.7013 39.8085 28.5975 39.5363L17.8781 11.3925L11.865 24.6207C11.7459 24.8828 11.5538 25.1051 11.3118 25.261C11.0697 25.4169 10.7879 25.4999 10.5 25.5H4.5C4.10218 25.5 3.72064 25.342 3.43934 25.0607C3.15804 24.7794 3 24.3979 3 24C3 23.6022 3.15804 23.2207 3.43934 22.9394C3.72064 22.6581 4.10218 22.5 4.5 22.5H9.53437L16.635 6.8794C16.7574 6.60984 16.9569 6.38254 17.2082 6.22611C17.4596 6.06969 17.7516 5.99114 18.0475 6.00036C18.3434 6.00958 18.63 6.10616 18.8711 6.27794C19.1122 6.44971 19.2971 6.68899 19.4025 6.96565L30.1856 35.2782L36.1575 23.3325C36.2817 23.0826 36.4731 22.8723 36.7103 22.7252C36.9474 22.5782 37.2209 22.5002 37.5 22.5H43.5C43.8978 22.5 44.2794 22.6581 44.5607 22.9394C44.842 23.2207 45 23.6022 45 24Z" />
</svg>
