<svg width="48" height="48" viewBox="0 0 48 48" fill="currentColor" xmlns="http://www.w3.org/2000/svg">
<g clip-path="url(#clip0_587_3031)">
<path d="M37.5 10.5H6C4.80653 10.5 3.66193 10.9741 2.81802 11.818C1.97411 12.6619 1.5 13.8065 1.5 15V33C1.5 34.1935 1.97411 35.3381 2.81802 36.182C3.66193 37.0259 4.80653 37.5 6 37.5H37.5C38.6935 37.5 39.8381 37.0259 40.682 36.182C41.5259 35.3381 42 34.1935 42 33V15C42 13.8065 41.5259 12.6619 40.682 11.818C39.8381 10.9741 38.6935 10.5 37.5 10.5ZM39 33C39 33.3978 38.842 33.7794 38.5607 34.0607C38.2794 34.342 37.8978 34.5 37.5 34.5H6C5.60218 34.5 5.22064 34.342 4.93934 34.0607C4.65804 33.7794 4.5 33.3978 4.5 33V15C4.5 14.6022 4.65804 14.2206 4.93934 13.9393C5.22064 13.658 5.60218 13.5 6 13.5H37.5C37.8978 13.5 38.2794 13.658 38.5607 13.9393C38.842 14.2206 39 14.6022 39 15V33ZM27 18V30C27 30.3978 26.842 30.7794 26.5607 31.0607C26.2794 31.342 25.8978 31.5 25.5 31.5C25.1022 31.5 24.7206 31.342 24.4393 31.0607C24.158 30.7794 24 30.3978 24 30V18C24 17.6022 24.158 17.2206 24.4393 16.9393C24.7206 16.658 25.1022 16.5 25.5 16.5C25.8978 16.5 26.2794 16.658 26.5607 16.9393C26.842 17.2206 27 17.6022 27 18ZM19.5 18V30C19.5 30.3978 19.342 30.7794 19.0607 31.0607C18.7794 31.342 18.3978 31.5 18 31.5C17.6022 31.5 17.2206 31.342 16.9393 31.0607C16.658 30.7794 16.5 30.3978 16.5 30V18C16.5 17.6022 16.658 17.2206 16.9393 16.9393C17.2206 16.658 17.6022 16.5 18 16.5C18.3978 16.5 18.7794 16.658 19.0607 16.9393C19.342 17.2206 19.5 17.6022 19.5 18ZM12 18V30C12 30.3978 11.842 30.7794 11.5607 31.0607C11.2794 31.342 10.8978 31.5 10.5 31.5C10.1022 31.5 9.72064 31.342 9.43934 31.0607C9.15804 30.7794 9 30.3978 9 30V18C9 17.6022 9.15804 17.2206 9.43934 16.9393C9.72064 16.658 10.1022 16.5 10.5 16.5C10.8978 16.5 11.2794 16.658 11.5607 16.9393C11.842 17.2206 12 17.6022 12 18ZM48 18V30C48 30.3978 47.842 30.7794 47.5607 31.0607C47.2794 31.342 46.8978 31.5 46.5 31.5C46.1022 31.5 45.7206 31.342 45.4393 31.0607C45.158 30.7794 45 30.3978 45 30V18C45 17.6022 45.158 17.2206 45.4393 16.9393C45.7206 16.658 46.1022 16.5 46.5 16.5C46.8978 16.5 47.2794 16.658 47.5607 16.9393C47.842 17.2206 48 17.6022 48 18Z" />
</g>
<defs>
<clipPath id="clip0_587_3031">
<rect width="24" height="24" fill="white" transform="scale(2)"/>
</clipPath>
</defs>
</svg>
