<svg width="48" height="48" viewBox="0 0 48 48" fill="currentColor" xmlns="http://www.w3.org/2000/svg">
<path d="M42 9.00002V18C42 18.3978 41.842 18.7794 41.5607 19.0607C41.2794 19.342 40.8978 19.5 40.5 19.5H31.5C31.1022 19.5 30.7206 19.342 30.4393 19.0607C30.158 18.7794 30 18.3978 30 18C30 17.6022 30.158 17.2207 30.4393 16.9394C30.7206 16.6581 31.1022 16.5 31.5 16.5H36.8794L34.1362 13.7569C31.3484 10.9564 27.5634 9.37643 23.6119 9.36377H23.5275C19.6091 9.35458 15.8445 10.8883 13.0481 13.6331C12.7617 13.9006 12.3819 14.0452 11.9901 14.0363C11.5984 14.0273 11.2257 13.8653 10.9518 13.5851C10.6779 13.3048 10.5245 12.9285 10.5245 12.5366C10.5246 12.1447 10.6779 11.7684 10.9519 11.4881C14.341 8.17576 18.8997 6.33354 23.6386 6.36127C28.3775 6.389 32.9143 8.28445 36.2644 11.6363L39 14.3794V9.00002C39 8.60219 39.158 8.22066 39.4393 7.93936C39.7206 7.65805 40.1022 7.50002 40.5 7.50002C40.8978 7.50002 41.2794 7.65805 41.5607 7.93936C41.842 8.22066 42 8.60219 42 9.00002ZM34.9519 34.3669C32.1278 37.1255 28.3301 38.6595 24.3824 38.6363C20.4347 38.6132 16.6552 37.0347 13.8638 34.2431L11.1206 31.5H16.5C16.8978 31.5 17.2794 31.342 17.5607 31.0607C17.842 30.7794 18 30.3978 18 30C18 29.6022 17.842 29.2207 17.5607 28.9394C17.2794 28.658 16.8978 28.5 16.5 28.5H7.5C7.10218 28.5 6.72064 28.658 6.43934 28.9394C6.15804 29.2207 6 29.6022 6 30V39C6 39.3978 6.15804 39.7794 6.43934 40.0607C6.72064 40.342 7.10218 40.5 7.5 40.5C7.89782 40.5 8.27936 40.342 8.56066 40.0607C8.84196 39.7794 9 39.3978 9 39V33.6206L11.7431 36.3638C15.0885 39.726 19.632 41.6224 24.375 41.6363H24.4744C29.177 41.6484 33.6951 39.8073 37.05 36.5119C37.3239 36.2316 37.4773 35.8553 37.4773 35.4635C37.4774 35.0716 37.324 34.6952 37.0501 34.415C36.7762 34.1347 36.4035 33.9728 36.0117 33.9638C35.62 33.9548 35.2402 34.0995 34.9538 34.3669H34.9519Z" />
</svg>
