<svg width="48" height="48" viewBox="0 0 48 48" fill="currentColor" xmlns="http://www.w3.org/2000/svg">
<path d="M39 15H18V10.5C18 8.9087 18.6321 7.38258 19.7574 6.25736C20.8826 5.13214 22.4087 4.5 24 4.5C26.8819 4.5 29.475 6.5625 30.03 9.29813C30.1124 9.68469 30.344 10.0231 30.6746 10.2398C31.0051 10.4565 31.4078 10.534 31.7952 10.4555C32.1825 10.3769 32.5232 10.1487 32.7432 9.82029C32.9632 9.49192 33.0447 9.09 32.97 8.70187C32.1225 4.52812 28.35 1.5 24 1.5C21.6138 1.50248 19.3261 2.45149 17.6388 4.13878C15.9515 5.82607 15.0025 8.11381 15 10.5V15H9C8.20435 15 7.44129 15.3161 6.87868 15.8787C6.31607 16.4413 6 17.2044 6 18V39C6 39.7957 6.31607 40.5587 6.87868 41.1213C7.44129 41.6839 8.20435 42 9 42H39C39.7957 42 40.5587 41.6839 41.1213 41.1213C41.6839 40.5587 42 39.7957 42 39V18C42 17.2044 41.6839 16.4413 41.1213 15.8787C40.5587 15.3161 39.7957 15 39 15ZM39 39H9V18H39V39ZM24 21C22.7392 21.0004 21.5207 21.4545 20.5672 22.2793C19.6137 23.1041 18.9888 24.2445 18.8068 25.492C18.6248 26.7396 18.8977 28.011 19.5759 29.0738C20.254 30.1367 21.2919 30.92 22.5 31.2806V34.5C22.5 34.8978 22.658 35.2794 22.9393 35.5607C23.2206 35.842 23.6022 36 24 36C24.3978 36 24.7794 35.842 25.0607 35.5607C25.342 35.2794 25.5 34.8978 25.5 34.5V31.2806C26.7081 30.92 27.746 30.1367 28.4241 29.0738C29.1023 28.011 29.3752 26.7396 29.1932 25.492C29.0112 24.2445 28.3863 23.1041 27.4328 22.2793C26.4792 21.4545 25.2608 21.0004 24 21ZM24 28.5C23.555 28.5 23.12 28.368 22.75 28.1208C22.38 27.8736 22.0916 27.5222 21.9213 27.111C21.751 26.6999 21.7064 26.2475 21.7932 25.811C21.88 25.3746 22.0943 24.9737 22.409 24.659C22.7237 24.3443 23.1246 24.13 23.561 24.0432C23.9975 23.9564 24.4499 24.001 24.861 24.1713C25.2722 24.3416 25.6236 24.63 25.8708 25C26.118 25.37 26.25 25.805 26.25 26.25C26.25 26.8467 26.0129 27.419 25.591 27.841C25.169 28.2629 24.5967 28.5 24 28.5Z" />
</svg>
