<svg width="48" height="48" viewBox="0 0 48 48" fill="currentColor" xmlns="http://www.w3.org/2000/svg">
<path d="M45 25.5V37.5C45 38.2956 44.6839 39.0587 44.1213 39.6213C43.5587 40.1839 42.7957 40.5 42 40.5H6C5.20435 40.5 4.44129 40.1839 3.87868 39.6213C3.31607 39.0587 3 38.2956 3 37.5V25.5C3 24.7043 3.31607 23.9412 3.87868 23.3786C4.44129 22.816 5.20435 22.5 6 22.5H15C15.3978 22.5 15.7794 22.658 16.0607 22.9393C16.342 23.2206 16.5 23.6021 16.5 24C16.5 24.3978 16.342 24.7793 16.0607 25.0606C15.7794 25.3419 15.3978 25.5 15 25.5H6V37.5H42V25.5H33C32.6022 25.5 32.2206 25.3419 31.9393 25.0606C31.658 24.7793 31.5 24.3978 31.5 24C31.5 23.6021 31.658 23.2206 31.9393 22.9393C32.2206 22.658 32.6022 22.5 33 22.5H42C42.7957 22.5 43.5587 22.816 44.1213 23.3786C44.6839 23.9412 45 24.7043 45 25.5ZM16.0613 14.5612L22.5 8.12058V24C22.5 24.3978 22.658 24.7793 22.9393 25.0606C23.2206 25.3419 23.6022 25.5 24 25.5C24.3978 25.5 24.7794 25.3419 25.0607 25.0606C25.342 24.7793 25.5 24.3978 25.5 24V8.12058L31.9387 14.5612C32.2202 14.8427 32.602 15.0008 33 15.0008C33.398 15.0008 33.7798 14.8427 34.0613 14.5612C34.3427 14.2797 34.5008 13.898 34.5008 13.5C34.5008 13.1019 34.3427 12.7202 34.0613 12.4387L25.0613 3.43871C24.9219 3.29924 24.7565 3.18861 24.5744 3.11312C24.3923 3.03763 24.1971 2.99878 24 2.99878C23.8029 2.99878 23.6077 3.03763 23.4256 3.11312C23.2435 3.18861 23.0781 3.29924 22.9387 3.43871L13.9387 12.4387C13.6573 12.7202 13.4992 13.1019 13.4992 13.5C13.4992 13.898 13.6573 14.2797 13.9388 14.5612C14.2202 14.8427 14.602 15.0008 15 15.0008C15.398 15.0008 15.7798 14.8427 16.0613 14.5612ZM37.5 31.5C37.5 31.055 37.368 30.6199 37.1208 30.2499C36.8736 29.8799 36.5222 29.5915 36.111 29.4212C35.6999 29.2509 35.2475 29.2064 34.811 29.2932C34.3746 29.38 33.9737 29.5943 33.659 29.909C33.3443 30.2236 33.13 30.6245 33.0432 31.061C32.9564 31.4975 33.001 31.9499 33.1713 32.361C33.3416 32.7721 33.63 33.1235 34 33.3708C34.37 33.618 34.805 33.75 35.25 33.75C35.8467 33.75 36.419 33.5129 36.841 33.0909C37.2629 32.669 37.5 32.0967 37.5 31.5Z" />
</svg>
